<svg width="2041" height="2041" viewBox="0 0 2041 2041" fill="none" xmlns="http://www.w3.org/2000/svg">
<path fill-rule="evenodd" clip-rule="evenodd" d="M1717.23 330.594C1717.23 330.594 1408.62 2.08339 1025.73 0.00990534C642.858 -2.06673 330.7 323.071 330.7 323.071C330.7 323.071 332.286 324.766 335.379 327.905C334.07 326.582 333.01 325.537 332.23 324.761C331.16 323.705 330.597 323.173 330.597 323.173C330.597 323.173 2.09039 631.783 0.0098816 1014.67C-2.06426 1397.55 323.074 1709.71 323.074 1709.71C323.074 1709.71 651.579 1401.09 653.654 1018.21C655.558 668.248 384.092 377.369 337.393 329.942C384.318 377.145 672.231 651.752 1022.19 653.65C1405.07 655.732 1717.23 330.594 1717.23 330.594ZM1014.66 2040.39C631.787 2038.31 323.176 1709.8 323.176 1709.8C323.176 1709.8 635.339 1384.67 1018.21 1386.74C1368.18 1388.64 1656.09 1663.25 1703.01 1710.46C1656.32 1663.02 1384.85 1372.15 1386.75 1022.19C1388.83 639.308 1717.33 330.697 1717.33 330.697C1717.33 330.697 2042.47 642.848 2040.39 1025.74C2038.31 1408.61 1709.81 1717.22 1709.81 1717.22C1709.81 1717.22 1708.13 1715.62 1705.03 1712.5C1708.11 1715.63 1709.7 1717.33 1709.7 1717.33C1709.7 1717.33 1397.55 2042.46 1014.66 2040.39Z" fill="#FFF7E0"/>
</svg>
