<svg width="72" height="72" viewBox="0 0 72 72" fill="none" xmlns="http://www.w3.org/2000/svg">
<circle cx="36" cy="36" r="36" fill="#CEAFF4"/>
<path d="M47.4687 32.0742H23.4688V44.0742C23.4688 48.5742 24.9687 50.0742 29.4687 50.0742H41.4688C45.9688 50.0742 47.4687 48.5742 47.4687 44.0742V32.0742Z" stroke="#2D3443" stroke-width="1.5" stroke-miterlimit="10" stroke-linecap="round" stroke-linejoin="round"/>
<path d="M49.7637 27.5742V29.0742C49.7637 30.7242 48.9687 32.0742 46.7637 32.0742H24.2637C21.9687 32.0742 21.2637 30.7242 21.2637 29.0742V27.5742C21.2637 25.9242 21.9687 24.5742 24.2637 24.5742H46.7637C48.9687 24.5742 49.7637 25.9242 49.7637 27.5742Z" stroke="#2D3443" stroke-width="1.5" stroke-miterlimit="10" stroke-linecap="round" stroke-linejoin="round"/>
<path d="M34.9738 24.5744H26.6938C26.1838 24.0194 26.1988 23.1644 26.7388 22.6244L28.8688 20.4944C29.4238 19.9394 30.3388 19.9394 30.8938 20.4944L34.9738 24.5744Z" stroke="#2D3443" stroke-width="1.5" stroke-miterlimit="10" stroke-linecap="round" stroke-linejoin="round"/>
<path d="M44.3191 24.5744H36.0391L40.1191 20.4944C40.6741 19.9394 41.5891 19.9394 42.1441 20.4944L44.2741 22.6244C44.8141 23.1644 44.8291 24.0194 44.3191 24.5744Z" stroke="#2D3443" stroke-width="1.5" stroke-miterlimit="10" stroke-linecap="round" stroke-linejoin="round"/>
<path d="M30.9238 32.0742V39.7842C30.9238 40.9842 32.2438 41.6892 33.2488 41.0442L34.6588 40.1142C35.1688 39.7842 35.8138 39.7842 36.3088 40.1142L37.6438 41.0142C38.6338 41.6742 39.9688 40.9692 39.9688 39.7692V32.0742H30.9238Z" stroke="#2D3443" stroke-width="1.5" stroke-miterlimit="10" stroke-linecap="round" stroke-linejoin="round"/>
</svg>
