<svg width="72" height="72" viewBox="0 0 72 72" fill="none" xmlns="http://www.w3.org/2000/svg">
<circle cx="36" cy="36" r="36" fill="#FFCC9F"/>
<path d="M31.2535 33.3792C31.1035 33.3642 30.9235 33.3642 30.7585 33.3792C27.1885 33.2592 24.3535 30.3342 24.3535 26.7342C24.3535 23.0592 27.3235 20.0742 31.0135 20.0742C34.6885 20.0742 37.6735 23.0592 37.6735 26.7342C37.6585 30.3342 34.8235 33.2592 31.2535 33.3792Z" stroke="#2D3443" stroke-width="1.5" stroke-linecap="round" stroke-linejoin="round"/>
<path d="M42.1286 23.0742C45.0386 23.0742 47.3786 25.4292 47.3786 28.3242C47.3786 31.1592 45.1286 33.4692 42.3236 33.5742C42.2036 33.5592 42.0686 33.5592 41.9336 33.5742" stroke="#2D3443" stroke-width="1.5" stroke-linecap="round" stroke-linejoin="round"/>
<path d="M23.7538 38.9142C20.1237 41.3442 20.1237 45.3042 23.7538 47.7192C27.8788 50.4792 34.6438 50.4792 38.7688 47.7192C42.3988 45.2892 42.3988 41.3292 38.7688 38.9142C34.6588 36.1692 27.8938 36.1692 23.7538 38.9142Z" stroke="#2D3443" stroke-width="1.5" stroke-linecap="round" stroke-linejoin="round"/>
<path d="M45.0234 47.0742C46.1034 46.8492 47.1234 46.4142 47.9634 45.7692C50.3034 44.0142 50.3034 41.1192 47.9634 39.3642C47.1384 38.7342 46.1334 38.3142 45.0684 38.0742" stroke="#2D3443" stroke-width="1.5" stroke-linecap="round" stroke-linejoin="round"/>
</svg>
