<svg width="72" height="72" viewBox="0 0 72 72" fill="none" xmlns="http://www.w3.org/2000/svg">
<circle cx="36" cy="36" r="36" fill="#C3E396"/>
<path d="M34.4369 31.208L34.8898 32.1138C34.9496 32.2419 35.1119 32.3616 35.2486 32.3787L36.069 32.5154C36.5902 32.6008 36.7184 32.9853 36.3424 33.3528L35.7015 33.9936C35.5904 34.1047 35.5306 34.3098 35.5648 34.4551L35.7443 35.2412C35.8895 35.865 35.5563 36.1043 35.0094 35.7796L34.2403 35.3267C34.1036 35.2412 33.8729 35.2412 33.7362 35.3267L32.9671 35.7796C32.4202 36.1043 32.087 35.865 32.2323 35.2412L32.4117 34.4551C32.4459 34.3098 32.3861 34.0962 32.275 33.9936L31.6427 33.3613C31.2667 32.9853 31.3863 32.6094 31.9161 32.5239L32.7364 32.3872C32.8731 32.3616 33.0355 32.2419 33.0953 32.1223L33.5482 31.2165C33.796 30.7209 34.1891 30.7209 34.4369 31.208Z" stroke="#2D3443" stroke-width="0.854499" stroke-linecap="round" stroke-linejoin="round"/>
<path d="M25.7246 21V51" stroke="#2D3443" stroke-width="1.5" stroke-miterlimit="10" stroke-linecap="round" stroke-linejoin="round"/>
<path d="M25.7246 24H42.5246C46.5746 24 47.4746 26.25 44.6246 29.1L42.8246 30.9C41.6246 32.1 41.6246 34.05 42.8246 35.1L44.6246 36.9C47.4746 39.75 46.4246 42 42.5246 42H25.7246" stroke="#2D3443" stroke-width="1.5" stroke-miterlimit="10" stroke-linecap="round" stroke-linejoin="round"/>
</svg>
