<svg width="44" height="44" viewBox="0 0 44 44" fill="none" xmlns="http://www.w3.org/2000/svg">
<circle cx="22" cy="22" r="21.56" stroke="#DE9B12" stroke-width="0.88"/>
<path d="M22.2934 23.8442C23.1312 23.1789 23.7472 22.5629 24.1414 21.9962C24.5357 21.4541 24.7328 20.8381 24.7328 20.1728C24.7328 19.335 24.4618 18.6944 23.969 18.2509C23.4762 17.8074 22.8109 17.561 21.9731 17.561C21.16 17.561 20.4947 17.832 20.0019 18.3741C19.5091 18.9162 19.2627 19.6554 19.2627 20.567V20.8381H15.6899V20.3699C15.6899 19.2858 15.9363 18.3002 16.4538 17.4131C16.9712 16.5261 17.7104 15.8362 18.6714 15.3434C19.6077 14.8506 20.7165 14.5795 21.9731 14.5795C23.9936 14.5795 25.5459 15.0723 26.6547 16.0579C27.7635 17.0435 28.3302 18.3741 28.3302 20.025C28.3302 21.2077 28.0346 22.2426 27.4432 23.105C26.8518 23.9674 25.9648 24.879 24.7574 25.8646L20.889 29.0186H28.4042V32H15.7638V29.265L22.2934 23.8442Z" fill="#DE9B12"/>
</svg>
