<svg width="44" height="44" viewBox="0 0 44 44" fill="none" xmlns="http://www.w3.org/2000/svg">
<circle cx="22" cy="22" r="21.56" stroke="#006E2C" stroke-width="0.88"/>
<path d="M27.2112 24.3859C27.9012 25.0759 28.2708 25.9875 28.2708 27.121C28.2708 28.1066 27.9751 28.9936 27.433 29.7328C26.8909 30.472 26.1024 31.0634 25.0922 31.4576C24.0573 31.8765 22.8746 32.0736 21.544 32.0736C19.4743 32.0736 17.848 31.5562 16.6653 30.5213C15.458 29.4864 14.8666 28.0327 14.8666 26.1847H18.3901C18.3901 27.1456 18.7104 27.9095 19.3511 28.4515C19.9671 29.0183 20.7556 29.2893 21.7412 29.2893C22.5789 29.2893 23.2688 29.0675 23.8109 28.624C24.353 28.1805 24.6487 27.5891 24.6487 26.8253C24.6487 26.1354 24.3776 25.5933 23.8356 25.1991C23.2935 24.8048 22.505 24.6077 21.4948 24.6077H19.7946V21.7741H21.2976C22.234 21.7741 22.9732 21.577 23.4906 21.1581C24.008 20.7392 24.2791 20.1725 24.2791 19.4579C24.2791 18.7927 24.0327 18.2752 23.5645 17.881C23.0717 17.5114 22.4557 17.3143 21.6919 17.3143C20.8541 17.3143 20.1642 17.5607 19.6221 18.0042C19.08 18.4723 18.7844 19.0883 18.7844 19.8768H15.3101C15.3101 18.2259 15.8768 16.92 17.0103 15.9591C18.1437 15.0227 19.6468 14.5299 21.544 14.5299C23.5152 14.5299 25.0676 14.9488 26.1764 15.7866C27.2852 16.6243 27.8519 17.7578 27.8519 19.1376C27.8519 20.1725 27.5316 20.9856 26.9156 21.6263C26.2996 22.2669 25.4864 22.7104 24.4762 22.9568C25.585 23.2279 26.4967 23.696 27.2112 24.3859Z" fill="#006E2C"/>
</svg>
