<svg width="3754" height="2716" viewBox="0 0 3754 2716" fill="none" xmlns="http://www.w3.org/2000/svg">
<rect x="5.68357" y="5.68357" width="3742.63" height="2704.63" rx="256.708" fill="white" fill-opacity="0.37" stroke="white" stroke-width="11.3671"/>
<path d="M472 1135.5H3293C3389.37 1135.5 3467.5 1213.63 3467.5 1310V2178C3467.5 2274.37 3389.37 2352.5 3293 2352.5H472C375.626 2352.5 297.5 2274.37 297.5 2178V1310C297.5 1213.63 375.626 1135.5 472 1135.5Z" fill="white"/>
<path d="M472 1135.5H3293C3389.37 1135.5 3467.5 1213.63 3467.5 1310V2178C3467.5 2274.37 3389.37 2352.5 3293 2352.5H472C375.626 2352.5 297.5 2274.37 297.5 2178V1310C297.5 1213.63 375.626 1135.5 472 1135.5Z" stroke="#F4F5F7" stroke-width="11"/>
<path d="M541.652 1412.49V1405.57H560.463C564.152 1405.57 567.134 1404.43 569.408 1402.16C571.744 1399.82 572.912 1396.81 572.912 1393.12C572.912 1389.31 571.744 1386.3 569.408 1384.08C567.134 1381.81 564.152 1380.67 560.463 1380.67H543.127V1433.69H535.75V1373.76H560.463C563.23 1373.76 565.812 1374.19 568.209 1375.05C570.607 1375.91 572.697 1377.17 574.48 1378.83C576.324 1380.49 577.738 1382.52 578.722 1384.91C579.767 1387.31 580.289 1390.05 580.289 1393.12C580.289 1396.19 579.767 1398.93 578.722 1401.33C577.738 1403.72 576.324 1405.75 574.48 1407.41C572.697 1409.07 570.607 1410.33 568.209 1411.19C565.812 1412.05 563.23 1412.49 560.463 1412.49H541.652Z" fill="#E6E6E6"/>
<path d="M621.317 1418.85H628.233C627.741 1421.86 626.635 1424.57 624.913 1426.96C623.253 1429.3 621.04 1431.17 618.274 1432.59C615.569 1433.94 612.434 1434.62 608.868 1434.62C604.565 1434.62 600.692 1433.6 597.249 1431.57C593.806 1429.48 591.071 1426.66 589.042 1423.09C587.075 1419.46 586.091 1415.34 586.091 1410.73C586.091 1406.12 587.044 1402 588.95 1398.38C590.917 1394.75 593.591 1391.89 596.972 1389.8C600.353 1387.71 604.165 1386.67 608.407 1386.67C612.895 1386.67 616.675 1387.68 619.749 1389.71C622.884 1391.68 625.19 1394.6 626.665 1398.47C628.202 1402.28 628.817 1406.98 628.51 1412.58H593.468C593.776 1415.59 594.605 1418.23 595.958 1420.51C597.31 1422.78 599.093 1424.57 601.306 1425.86C603.52 1427.09 606.04 1427.7 608.868 1427.7C612.003 1427.7 614.647 1426.9 616.798 1425.3C619.011 1423.64 620.518 1421.49 621.317 1418.85ZM608.684 1393.58C604.872 1393.58 601.675 1394.69 599.093 1396.9C596.511 1399.11 594.79 1402.13 593.929 1405.94H620.948C620.702 1401.88 619.38 1398.81 616.983 1396.72C614.647 1394.63 611.88 1393.58 608.684 1393.58Z" fill="#E6E6E6"/>
<path d="M638.022 1387.59H645.399V1433.69H638.022V1387.59ZM660.153 1394.5C657.018 1394.5 654.375 1395.3 652.223 1396.9C650.133 1398.44 648.473 1400.34 647.243 1402.62C646.075 1404.83 645.307 1406.98 644.938 1409.07L644.846 1403.72C644.846 1403.17 644.969 1402.25 645.215 1400.96C645.461 1399.67 645.922 1398.22 646.598 1396.62C647.274 1394.96 648.166 1393.4 649.272 1391.92C650.44 1390.38 651.916 1389.12 653.698 1388.14C655.481 1387.16 657.633 1386.67 660.153 1386.67V1394.5Z" fill="#E6E6E6"/>
<path d="M666.247 1418.85H673.071C673.255 1421.49 674.239 1423.64 676.021 1425.3C677.866 1426.96 680.509 1427.79 683.952 1427.79C686.042 1427.79 687.671 1427.52 688.839 1426.96C690.069 1426.41 690.96 1425.67 691.513 1424.75C692.067 1423.77 692.343 1422.69 692.343 1421.52C692.343 1420.11 691.975 1419 691.237 1418.2C690.561 1417.34 689.608 1416.63 688.378 1416.08C687.21 1415.53 685.858 1415.01 684.321 1414.51C682.538 1413.84 680.694 1413.13 678.788 1412.39C676.944 1411.59 675.192 1410.67 673.532 1409.63C671.933 1408.52 670.642 1407.2 669.659 1405.66C668.675 1404.06 668.183 1402.16 668.183 1399.94C668.183 1398.1 668.552 1396.38 669.29 1394.78C670.028 1393.12 671.073 1391.71 672.425 1390.54C673.839 1389.31 675.468 1388.36 677.312 1387.68C679.218 1387 681.308 1386.67 683.583 1386.67C686.657 1386.67 689.239 1387.28 691.329 1388.51C693.481 1389.74 695.11 1391.49 696.216 1393.77C697.384 1395.98 697.999 1398.56 698.061 1401.51H691.698C691.268 1398.75 690.376 1396.75 689.024 1395.52C687.733 1394.23 685.858 1393.58 683.399 1393.58C680.878 1393.58 678.942 1394.13 677.589 1395.24C676.237 1396.35 675.56 1397.82 675.56 1399.67C675.56 1401.02 676.052 1402.16 677.036 1403.08C678.019 1403.94 679.28 1404.74 680.817 1405.48C682.415 1406.15 684.106 1406.86 685.888 1407.6C687.671 1408.34 689.393 1409.07 691.052 1409.81C692.712 1410.55 694.188 1411.41 695.479 1412.39C696.77 1413.38 697.784 1414.61 698.522 1416.08C699.321 1417.5 699.721 1419.28 699.721 1421.43C699.721 1424.01 699.106 1426.32 697.876 1428.35C696.708 1430.31 694.956 1431.85 692.62 1432.96C690.345 1434.06 687.548 1434.62 684.229 1434.62C681.216 1434.62 678.634 1434.25 676.483 1433.51C674.392 1432.71 672.64 1431.7 671.226 1430.47C669.812 1429.18 668.706 1427.82 667.907 1426.41C667.169 1425 666.677 1423.61 666.431 1422.26C666.185 1420.91 666.124 1419.77 666.247 1418.85Z" fill="#E6E6E6"/>
<path d="M729.174 1434.62C725.24 1434.62 721.551 1433.66 718.109 1431.76C714.666 1429.85 711.869 1427.12 709.717 1423.55C707.627 1419.92 706.582 1415.65 706.582 1410.73C706.582 1405.82 707.627 1401.57 709.717 1398.01C711.869 1394.38 714.666 1391.58 718.109 1389.62C721.551 1387.65 725.24 1386.67 729.174 1386.67C733.109 1386.67 736.767 1387.65 740.148 1389.62C743.59 1391.58 746.357 1394.38 748.447 1398.01C750.537 1401.57 751.582 1405.82 751.582 1410.73C751.582 1415.65 750.537 1419.92 748.447 1423.55C746.357 1427.12 743.59 1429.85 740.148 1431.76C736.767 1433.66 733.109 1434.62 729.174 1434.62ZM729.174 1427.7C731.756 1427.7 734.185 1427.06 736.459 1425.76C738.734 1424.47 740.578 1422.57 741.992 1420.05C743.468 1417.46 744.205 1414.36 744.205 1410.73C744.205 1407.11 743.468 1404.03 741.992 1401.51C740.578 1398.93 738.734 1396.96 736.459 1395.61C734.185 1394.26 731.756 1393.58 729.174 1393.58C726.592 1393.58 724.133 1394.26 721.797 1395.61C719.523 1396.9 717.648 1398.84 716.172 1401.42C714.697 1403.94 713.959 1407.04 713.959 1410.73C713.959 1414.36 714.666 1417.46 716.08 1420.05C717.555 1422.57 719.461 1424.47 721.797 1425.76C724.133 1427.06 726.592 1427.7 729.174 1427.7Z" fill="#E6E6E6"/>
<path d="M760.944 1387.59H768.321V1433.69H760.944V1387.59ZM784.182 1386.67C786.641 1386.67 788.854 1387.03 790.822 1387.77C792.789 1388.51 794.449 1389.59 795.801 1391C797.154 1392.41 798.199 1394.13 798.937 1396.16C799.674 1398.13 800.043 1400.37 800.043 1402.89V1433.69H792.666V1404.74C792.666 1401.17 791.836 1398.5 790.176 1396.72C788.516 1394.93 786.027 1394.04 782.707 1394.04C780.186 1394.04 777.85 1394.69 775.699 1395.98C773.547 1397.27 771.764 1399.05 770.35 1401.33C768.998 1403.54 768.168 1406.12 767.86 1409.07L767.768 1403.72C768.076 1401.14 768.69 1398.81 769.612 1396.72C770.596 1394.63 771.795 1392.84 773.209 1391.37C774.684 1389.83 776.344 1388.66 778.188 1387.86C780.094 1387.06 782.092 1386.67 784.182 1386.67Z" fill="#E6E6E6"/>
<path d="M829.433 1434.62C825.806 1434.62 822.455 1433.6 819.381 1431.57C816.369 1429.48 813.941 1426.66 812.096 1423.09C810.314 1419.46 809.422 1415.34 809.422 1410.73C809.422 1406.12 810.344 1402 812.189 1398.38C814.033 1394.75 816.523 1391.89 819.658 1389.8C822.855 1387.71 826.42 1386.67 830.355 1386.67C834.658 1386.67 837.916 1387.77 840.13 1389.98C842.404 1392.14 843.941 1395.03 844.74 1398.65C845.601 1402.28 846.031 1406.31 846.031 1410.73C846.031 1413.07 845.785 1415.62 845.294 1418.39C844.802 1421.09 843.941 1423.7 842.712 1426.23C841.544 1428.68 839.884 1430.71 837.732 1432.31C835.58 1433.85 832.814 1434.62 829.433 1434.62ZM831.277 1427.61C834.412 1427.61 836.994 1426.84 839.023 1425.3C841.113 1423.77 842.65 1421.74 843.634 1419.22C844.617 1416.63 845.109 1413.81 845.109 1410.73C845.109 1407.35 844.587 1404.4 843.542 1401.88C842.558 1399.3 841.021 1397.3 838.931 1395.89C836.902 1394.41 834.351 1393.67 831.277 1393.67C826.666 1393.67 823.101 1395.3 820.58 1398.56C818.06 1401.76 816.799 1405.82 816.799 1410.73C816.799 1413.99 817.414 1416.91 818.644 1419.49C819.935 1422.01 821.656 1424.01 823.808 1425.49C826.021 1426.9 828.511 1427.61 831.277 1427.61ZM845.109 1387.59H852.486V1433.69H845.755C845.755 1433.69 845.693 1433.14 845.57 1432.03C845.509 1430.93 845.417 1429.64 845.294 1428.16C845.171 1426.69 845.109 1425.46 845.109 1424.47V1387.59Z" fill="#E6E6E6"/>
<path d="M865.427 1369.14H872.804V1433.69H865.427V1369.14Z" fill="#E6E6E6"/>
<path d="M925.959 1373.76C931.984 1373.76 937.025 1374.55 941.083 1376.15C945.201 1377.69 948.49 1379.84 950.949 1382.61C953.408 1385.37 955.191 1388.54 956.298 1392.11C957.404 1395.67 957.958 1399.45 957.958 1403.45C957.958 1407.44 957.374 1411.26 956.206 1414.88C955.038 1418.51 953.163 1421.74 950.581 1424.57C948.06 1427.39 944.771 1429.64 940.714 1431.3C936.656 1432.9 931.738 1433.69 925.959 1433.69H906.502V1373.76H925.959ZM913.879 1426.78H925.959C930.816 1426.78 934.812 1426.1 937.947 1424.75C941.144 1423.4 943.665 1421.61 945.509 1419.4C947.353 1417.13 948.644 1414.61 949.382 1411.84C950.181 1409.07 950.581 1406.28 950.581 1403.45C950.581 1400.62 950.181 1397.85 949.382 1395.15C948.644 1392.44 947.353 1390.02 945.509 1387.86C943.665 1385.65 941.144 1383.9 937.947 1382.61C934.812 1381.32 930.816 1380.67 925.959 1380.67H913.879V1426.78Z" fill="#E6E6E6"/>
<path d="M1001.25 1418.85H1008.17C1007.67 1421.86 1006.57 1424.57 1004.85 1426.96C1003.19 1429.3 1000.97 1431.17 998.207 1432.59C995.502 1433.94 992.367 1434.62 988.801 1434.62C984.498 1434.62 980.625 1433.6 977.182 1431.57C973.74 1429.48 971.004 1426.66 968.975 1423.09C967.008 1419.46 966.024 1415.34 966.024 1410.73C966.024 1406.12 966.977 1402 968.883 1398.38C970.85 1394.75 973.524 1391.89 976.906 1389.8C980.287 1387.71 984.098 1386.67 988.34 1386.67C992.828 1386.67 996.609 1387.68 999.683 1389.71C1002.82 1391.68 1005.12 1394.6 1006.6 1398.47C1008.14 1402.28 1008.75 1406.98 1008.44 1412.58H973.401C973.709 1415.59 974.539 1418.23 975.891 1420.51C977.244 1422.78 979.027 1424.57 981.24 1425.86C983.453 1427.09 985.973 1427.7 988.801 1427.7C991.937 1427.7 994.58 1426.9 996.732 1425.3C998.945 1423.64 1000.45 1421.49 1001.25 1418.85ZM988.617 1393.58C984.805 1393.58 981.609 1394.69 979.027 1396.9C976.445 1399.11 974.723 1402.13 973.863 1405.94H1000.88C1000.64 1401.88 999.314 1398.81 996.916 1396.72C994.58 1394.63 991.814 1393.58 988.617 1393.58Z" fill="#E6E6E6"/>
<path d="M1013.83 1387.59H1040.94V1394.5H1013.83V1387.59ZM1023.69 1375.6H1031.07V1433.69H1023.69V1375.6Z" fill="#E6E6E6"/>
<path d="M1066.18 1434.62C1062.55 1434.62 1059.2 1433.6 1056.13 1431.57C1053.12 1429.48 1050.69 1426.66 1048.85 1423.09C1047.06 1419.46 1046.17 1415.34 1046.17 1410.73C1046.17 1406.12 1047.09 1402 1048.94 1398.38C1050.78 1394.75 1053.27 1391.89 1056.41 1389.8C1059.6 1387.71 1063.17 1386.67 1067.1 1386.67C1071.41 1386.67 1074.67 1387.77 1076.88 1389.98C1079.15 1392.14 1080.69 1395.03 1081.49 1398.65C1082.35 1402.28 1082.78 1406.31 1082.78 1410.73C1082.78 1413.07 1082.53 1415.62 1082.04 1418.39C1081.55 1421.09 1080.69 1423.7 1079.46 1426.23C1078.29 1428.68 1076.63 1430.71 1074.48 1432.31C1072.33 1433.85 1069.56 1434.62 1066.18 1434.62ZM1068.03 1427.61C1071.16 1427.61 1073.74 1426.84 1075.77 1425.3C1077.86 1423.77 1079.4 1421.74 1080.38 1419.22C1081.37 1416.63 1081.86 1413.81 1081.86 1410.73C1081.86 1407.35 1081.34 1404.4 1080.29 1401.88C1079.31 1399.3 1077.77 1397.3 1075.68 1395.89C1073.65 1394.41 1071.1 1393.67 1068.03 1393.67C1063.42 1393.67 1059.85 1395.3 1057.33 1398.56C1054.81 1401.76 1053.55 1405.82 1053.55 1410.73C1053.55 1413.99 1054.16 1416.91 1055.39 1419.49C1056.68 1422.01 1058.41 1424.01 1060.56 1425.49C1062.77 1426.9 1065.26 1427.61 1068.03 1427.61ZM1081.86 1387.59H1089.24V1433.69H1082.5C1082.5 1433.69 1082.44 1433.14 1082.32 1432.03C1082.26 1430.93 1082.17 1429.64 1082.04 1428.16C1081.92 1426.69 1081.86 1425.46 1081.86 1424.47V1387.59Z" fill="#E6E6E6"/>
<path d="M1110.38 1369.14V1378.09H1100.79V1369.14H1110.38ZM1101.9 1387.59H1109.28V1433.69H1101.9V1387.59Z" fill="#E6E6E6"/>
<path d="M1122.8 1369.14H1130.18V1433.69H1122.8V1369.14Z" fill="#E6E6E6"/>
<path d="M1140.92 1418.85H1147.74C1147.92 1421.49 1148.91 1423.64 1150.69 1425.3C1152.53 1426.96 1155.18 1427.79 1158.62 1427.79C1160.71 1427.79 1162.34 1427.52 1163.51 1426.96C1164.74 1426.41 1165.63 1425.67 1166.18 1424.75C1166.74 1423.77 1167.01 1422.69 1167.01 1421.52C1167.01 1420.11 1166.64 1419 1165.91 1418.2C1165.23 1417.34 1164.28 1416.63 1163.05 1416.08C1161.88 1415.53 1160.53 1415.01 1158.99 1414.51C1157.21 1413.84 1155.36 1413.13 1153.46 1412.39C1151.61 1411.59 1149.86 1410.67 1148.2 1409.63C1146.6 1408.52 1145.31 1407.2 1144.33 1405.66C1143.34 1404.06 1142.85 1402.16 1142.85 1399.94C1142.85 1398.1 1143.22 1396.38 1143.96 1394.78C1144.7 1393.12 1145.74 1391.71 1147.09 1390.54C1148.51 1389.31 1150.14 1388.36 1151.98 1387.68C1153.89 1387 1155.98 1386.67 1158.25 1386.67C1161.33 1386.67 1163.91 1387.28 1166 1388.51C1168.15 1389.74 1169.78 1391.49 1170.89 1393.77C1172.05 1395.98 1172.67 1398.56 1172.73 1401.51H1166.37C1165.94 1398.75 1165.05 1396.75 1163.69 1395.52C1162.4 1394.23 1160.53 1393.58 1158.07 1393.58C1155.55 1393.58 1153.61 1394.13 1152.26 1395.24C1150.91 1396.35 1150.23 1397.82 1150.23 1399.67C1150.23 1401.02 1150.72 1402.16 1151.7 1403.08C1152.69 1403.94 1153.95 1404.74 1155.49 1405.48C1157.08 1406.15 1158.77 1406.86 1160.56 1407.6C1162.34 1408.34 1164.06 1409.07 1165.72 1409.81C1167.38 1410.55 1168.86 1411.41 1170.15 1412.39C1171.44 1413.38 1172.45 1414.61 1173.19 1416.08C1173.99 1417.5 1174.39 1419.28 1174.39 1421.43C1174.39 1424.01 1173.77 1426.32 1172.55 1428.35C1171.38 1430.31 1169.63 1431.85 1167.29 1432.96C1165.01 1434.06 1162.22 1434.62 1158.9 1434.62C1155.89 1434.62 1153.3 1434.25 1151.15 1433.51C1149.06 1432.71 1147.31 1431.7 1145.9 1430.47C1144.48 1429.18 1143.37 1427.82 1142.58 1426.41C1141.84 1425 1141.35 1423.61 1141.1 1422.26C1140.85 1420.91 1140.79 1419.77 1140.92 1418.85Z" fill="#E6E6E6"/>
<rect x="535.75" y="1517.55" width="827.86" height="114.517" rx="46.545" fill="#F4F5F7"/>
<path d="M541.804 1960.25V1953.15H561.101C564.884 1953.15 567.943 1951.99 570.276 1949.65C572.673 1947.26 573.871 1944.17 573.871 1940.38C573.871 1936.47 572.673 1933.38 570.276 1931.11C567.943 1928.78 564.884 1927.61 561.101 1927.61H543.317V1982H535.75V1920.52H561.101C563.939 1920.52 566.587 1920.96 569.046 1921.84C571.506 1922.73 573.65 1924.02 575.479 1925.72C577.371 1927.42 578.821 1929.51 579.83 1931.97C580.902 1934.42 581.438 1937.23 581.438 1940.38C581.438 1943.54 580.902 1946.34 579.83 1948.8C578.821 1951.26 577.371 1953.34 575.479 1955.05C573.65 1956.75 571.506 1958.04 569.046 1958.92C566.587 1959.81 563.939 1960.25 561.101 1960.25H541.804Z" fill="#E6E6E6"/>
<path d="M607.916 1982.95C604.195 1982.95 600.758 1981.91 597.605 1979.83C594.515 1977.68 592.024 1974.78 590.132 1971.13C588.304 1967.41 587.389 1963.18 587.389 1958.45C587.389 1953.72 588.335 1949.5 590.227 1945.78C592.119 1942.06 594.673 1939.12 597.889 1936.98C601.168 1934.83 604.826 1933.76 608.862 1933.76C613.276 1933.76 616.618 1934.9 618.888 1937.17C621.222 1939.38 622.798 1942.34 623.618 1946.06C624.501 1949.78 624.942 1953.91 624.942 1958.45C624.942 1960.85 624.69 1963.46 624.186 1966.3C623.681 1969.08 622.798 1971.76 621.537 1974.34C620.339 1976.87 618.636 1978.95 616.429 1980.59C614.222 1982.16 611.384 1982.95 607.916 1982.95ZM609.808 1975.76C613.024 1975.76 615.672 1974.97 617.753 1973.4C619.897 1971.82 621.474 1969.74 622.483 1967.15C623.492 1964.51 623.996 1961.6 623.996 1958.45C623.996 1954.98 623.46 1951.96 622.388 1949.37C621.379 1946.72 619.803 1944.67 617.659 1943.22C615.578 1941.71 612.961 1940.95 609.808 1940.95C605.078 1940.95 601.42 1942.62 598.835 1945.96C596.249 1949.24 594.957 1953.41 594.957 1958.45C594.957 1961.79 595.587 1964.79 596.848 1967.44C598.173 1970.02 599.939 1972.07 602.146 1973.59C604.416 1975.04 606.97 1975.76 609.808 1975.76ZM623.996 1934.71H631.564V1982H624.659C624.659 1982 624.596 1981.44 624.469 1980.3C624.406 1979.17 624.312 1977.84 624.186 1976.33C624.06 1974.82 623.996 1973.55 623.996 1972.55V1934.71Z" fill="#E6E6E6"/>
<path d="M640.582 1934.71H668.392V1941.8H640.582V1934.71ZM650.703 1922.41H658.271V1982H650.703V1922.41Z" fill="#E6E6E6"/>
<path d="M686.697 1915.79V1924.97H676.86V1915.79H686.697ZM677.995 1934.71H685.562V1982H677.995V1934.71Z" fill="#E6E6E6"/>
<path d="M731.972 1966.78H739.067C738.562 1969.87 737.427 1972.64 735.661 1975.1C733.959 1977.5 731.688 1979.42 728.851 1980.87C726.076 1982.26 722.86 1982.95 719.202 1982.95C714.788 1982.95 710.815 1981.91 707.283 1979.83C703.752 1977.68 700.946 1974.78 698.865 1971.13C696.847 1967.41 695.838 1963.18 695.838 1958.45C695.838 1953.72 696.815 1949.5 698.77 1945.78C700.788 1942.06 703.531 1939.12 707 1936.98C710.468 1934.83 714.378 1933.76 718.729 1933.76C723.333 1933.76 727.211 1934.8 730.364 1936.88C733.58 1938.9 735.945 1941.9 737.458 1945.87C739.035 1949.78 739.666 1954.6 739.35 1960.34H703.405C703.721 1963.43 704.572 1966.14 705.959 1968.48C707.347 1970.81 709.175 1972.64 711.446 1973.96C713.716 1975.23 716.301 1975.86 719.202 1975.86C722.418 1975.86 725.13 1975.04 727.337 1973.4C729.607 1971.69 731.152 1969.49 731.972 1966.78ZM719.013 1940.86C715.103 1940.86 711.824 1941.99 709.175 1944.26C706.527 1946.53 704.761 1949.62 703.878 1953.53H731.594C731.341 1949.37 729.986 1946.22 727.526 1944.07C725.13 1941.93 722.292 1940.86 719.013 1940.86Z" fill="#E6E6E6"/>
<path d="M749.108 1934.71H756.675V1982H749.108V1934.71ZM772.945 1933.76C775.468 1933.76 777.738 1934.14 779.756 1934.9C781.774 1935.65 783.477 1936.76 784.864 1938.21C786.251 1939.66 787.323 1941.42 788.08 1943.51C788.837 1945.52 789.215 1947.83 789.215 1950.41V1982H781.648V1952.3C781.648 1948.65 780.796 1945.9 779.094 1944.07C777.391 1942.24 774.837 1941.33 771.432 1941.33C768.846 1941.33 766.45 1941.99 764.243 1943.32C762.036 1944.64 760.207 1946.47 758.756 1948.8C757.369 1951.07 756.518 1953.72 756.203 1956.75L756.108 1951.26C756.423 1948.61 757.054 1946.22 758 1944.07C759.009 1941.93 760.238 1940.1 761.689 1938.59C763.202 1937.01 764.905 1935.81 766.797 1934.99C768.752 1934.17 770.801 1933.76 772.945 1933.76Z" fill="#E6E6E6"/>
<path d="M798.174 1934.71H825.984V1941.8H798.174V1934.71ZM808.296 1922.41H815.863V1982H808.296V1922.41Z" fill="#E6E6E6"/>
<path d="M876.163 1920.52C882.343 1920.52 887.514 1921.34 891.676 1922.98C895.902 1924.56 899.275 1926.76 901.798 1929.6C904.32 1932.44 906.149 1935.69 907.284 1939.34C908.419 1943 908.987 1946.88 908.987 1950.98C908.987 1955.08 908.388 1958.99 907.19 1962.71C905.991 1966.43 904.068 1969.74 901.419 1972.64C898.834 1975.54 895.46 1977.84 891.298 1979.55C887.136 1981.18 882.091 1982 876.163 1982H856.204V1920.52H876.163ZM863.772 1974.91H876.163C881.145 1974.91 885.244 1974.22 888.46 1972.83C891.739 1971.44 894.325 1969.61 896.217 1967.34C898.109 1965.01 899.433 1962.42 900.19 1959.59C901.01 1956.75 901.419 1953.88 901.419 1950.98C901.419 1948.08 901.01 1945.24 900.19 1942.47C899.433 1939.69 898.109 1937.2 896.217 1934.99C894.325 1932.72 891.739 1930.92 888.46 1929.6C885.244 1928.28 881.145 1927.61 876.163 1927.61H863.772V1974.91Z" fill="#E6E6E6"/>
<path d="M953.396 1966.78H960.49C959.986 1969.87 958.85 1972.64 957.085 1975.1C955.382 1977.5 953.112 1979.42 950.274 1980.87C947.499 1982.26 944.283 1982.95 940.626 1982.95C936.211 1982.95 932.238 1981.91 928.707 1979.83C925.176 1977.68 922.369 1974.78 920.288 1971.13C918.27 1967.41 917.261 1963.18 917.261 1958.45C917.261 1953.72 918.239 1949.5 920.194 1945.78C922.212 1942.06 924.955 1939.12 928.423 1936.98C931.892 1934.83 935.801 1933.76 940.153 1933.76C944.756 1933.76 948.635 1934.8 951.788 1936.88C955.004 1938.9 957.369 1941.9 958.882 1945.87C960.459 1949.78 961.089 1954.6 960.774 1960.34H924.829C925.144 1963.43 925.995 1966.14 927.383 1968.48C928.77 1970.81 930.599 1972.64 932.869 1973.96C935.139 1975.23 937.725 1975.86 940.626 1975.86C943.842 1975.86 946.553 1975.04 948.761 1973.4C951.031 1971.69 952.576 1969.49 953.396 1966.78ZM940.436 1940.86C936.527 1940.86 933.247 1941.99 930.599 1944.26C927.95 1946.53 926.185 1949.62 925.302 1953.53H953.017C952.765 1949.37 951.409 1946.22 948.95 1944.07C946.553 1941.93 943.716 1940.86 940.436 1940.86Z" fill="#E6E6E6"/>
<path d="M966.297 1934.71H994.107V1941.8H966.297V1934.71ZM976.419 1922.41H983.986V1982H976.419V1922.41Z" fill="#E6E6E6"/>
<path d="M1020 1982.95C1016.28 1982.95 1012.84 1981.91 1009.69 1979.83C1006.6 1977.68 1004.11 1974.78 1002.22 1971.13C1000.39 1967.41 999.475 1963.18 999.475 1958.45C999.475 1953.72 1000.42 1949.5 1002.31 1945.78C1004.2 1942.06 1006.76 1939.12 1009.98 1936.98C1013.25 1934.83 1016.91 1933.76 1020.95 1933.76C1025.36 1933.76 1028.7 1934.9 1030.97 1937.17C1033.31 1939.38 1034.88 1942.34 1035.7 1946.06C1036.59 1949.78 1037.03 1953.91 1037.03 1958.45C1037.03 1960.85 1036.78 1963.46 1036.27 1966.3C1035.77 1969.08 1034.88 1971.76 1033.62 1974.34C1032.43 1976.87 1030.72 1978.95 1028.52 1980.59C1026.31 1982.16 1023.47 1982.95 1020 1982.95ZM1021.89 1975.76C1025.11 1975.76 1027.76 1974.97 1029.84 1973.4C1031.98 1971.82 1033.56 1969.74 1034.57 1967.15C1035.58 1964.51 1036.08 1961.6 1036.08 1958.45C1036.08 1954.98 1035.55 1951.96 1034.47 1949.37C1033.47 1946.72 1031.89 1944.67 1029.74 1943.22C1027.66 1941.71 1025.05 1940.95 1021.89 1940.95C1017.16 1940.95 1013.51 1942.62 1010.92 1945.96C1008.34 1949.24 1007.04 1953.41 1007.04 1958.45C1007.04 1961.79 1007.67 1964.79 1008.93 1967.44C1010.26 1970.02 1012.02 1972.07 1014.23 1973.59C1016.5 1975.04 1019.06 1975.76 1021.89 1975.76ZM1036.08 1934.71H1043.65V1982H1036.74C1036.74 1982 1036.68 1981.44 1036.56 1980.3C1036.49 1979.17 1036.4 1977.84 1036.27 1976.33C1036.15 1974.82 1036.08 1973.55 1036.08 1972.55V1934.71Z" fill="#E6E6E6"/>
<path d="M1065.34 1915.79V1924.97H1055.51V1915.79H1065.34ZM1056.64 1934.71H1064.21V1982H1056.64V1934.71Z" fill="#E6E6E6"/>
<path d="M1078.08 1915.79H1085.65V1982H1078.08V1915.79Z" fill="#E6E6E6"/>
<path d="M1096.66 1966.78H1103.66C1103.85 1969.49 1104.86 1971.69 1106.69 1973.4C1108.58 1975.1 1111.29 1975.95 1114.82 1975.95C1116.97 1975.95 1118.64 1975.67 1119.84 1975.1C1121.1 1974.53 1122.01 1973.78 1122.58 1972.83C1123.15 1971.82 1123.43 1970.72 1123.43 1969.52C1123.43 1968.07 1123.05 1966.93 1122.3 1966.11C1121.6 1965.23 1120.63 1964.51 1119.37 1963.94C1118.17 1963.37 1116.78 1962.83 1115.2 1962.33C1113.37 1961.64 1111.48 1960.91 1109.53 1960.15C1107.64 1959.33 1105.84 1958.39 1104.14 1957.32C1102.5 1956.18 1101.17 1954.83 1100.16 1953.25C1099.15 1951.61 1098.65 1949.65 1098.65 1947.38C1098.65 1945.49 1099.03 1943.73 1099.78 1942.09C1100.54 1940.38 1101.61 1938.93 1103 1937.74C1104.45 1936.47 1106.12 1935.5 1108.01 1934.8C1109.97 1934.11 1112.11 1933.76 1114.45 1933.76C1117.6 1933.76 1120.25 1934.39 1122.39 1935.65C1124.6 1936.92 1126.27 1938.71 1127.41 1941.05C1128.6 1943.32 1129.23 1945.96 1129.3 1948.99H1122.77C1122.33 1946.15 1121.41 1944.1 1120.03 1942.84C1118.7 1941.52 1116.78 1940.86 1114.26 1940.86C1111.67 1940.86 1109.69 1941.42 1108.3 1942.56C1106.91 1943.69 1106.22 1945.21 1106.22 1947.1C1106.22 1948.49 1106.72 1949.65 1107.73 1950.6C1108.74 1951.48 1110.03 1952.3 1111.61 1953.06C1113.25 1953.75 1114.98 1954.48 1116.81 1955.24C1118.64 1955.99 1120.41 1956.75 1122.11 1957.51C1123.81 1958.26 1125.32 1959.14 1126.65 1960.15C1127.97 1961.16 1129.01 1962.42 1129.77 1963.94C1130.59 1965.39 1131 1967.22 1131 1969.42C1131 1972.07 1130.37 1974.44 1129.11 1976.52C1127.91 1978.54 1126.11 1980.11 1123.72 1981.25C1121.38 1982.38 1118.51 1982.95 1115.11 1982.95C1112.02 1982.95 1109.37 1982.57 1107.16 1981.82C1105.02 1981 1103.22 1979.96 1101.77 1978.69C1100.32 1977.37 1099.19 1975.98 1098.37 1974.53C1097.61 1973.08 1097.1 1971.66 1096.85 1970.28C1096.6 1968.89 1096.54 1967.72 1096.66 1966.78Z" fill="#E6E6E6"/>
<rect x="535.75" y="2067.34" width="827.86" height="114.517" rx="46.545" fill="#F4F5F7"/>
<path d="M2591.76 1396.56V1391.95L2625.12 1424.6H2615.45L2585.1 1394.43L2611.81 1366.92H2621.4L2591.76 1396.56ZM2578 1366.92H2585.1V1424.6H2578V1366.92Z" fill="#E6E6E6"/>
<path d="M2677.03 1366.92L2656.62 1404.81V1424.6H2649.52V1404.81L2629.11 1366.92H2637.09L2654.66 1400.2H2651.82L2669.04 1366.92H2677.03Z" fill="#E6E6E6"/>
<path d="M2732.39 1405.35C2731.8 1409.49 2730.38 1413.07 2728.13 1416.09C2725.88 1419.1 2723.01 1421.44 2719.52 1423.1C2716.09 1424.69 2712.24 1425.49 2707.98 1425.49C2704.02 1425.49 2700.35 1424.81 2696.98 1423.45C2693.61 1422.03 2690.65 1420.02 2688.1 1417.42C2685.62 1414.81 2683.67 1411.68 2682.25 1408.01C2680.83 1404.34 2680.12 1400.26 2680.12 1395.76C2680.12 1391.21 2680.83 1387.12 2682.25 1383.52C2683.67 1379.85 2685.62 1376.71 2688.1 1374.11C2690.65 1371.5 2693.61 1369.52 2696.98 1368.16C2700.35 1366.74 2704.02 1366.03 2707.98 1366.03C2712.3 1366.03 2716.18 1366.86 2719.61 1368.52C2723.1 1370.11 2725.97 1372.45 2728.22 1375.53C2730.47 1378.55 2731.89 1382.15 2732.48 1386.36H2725.91C2725.08 1383.4 2723.78 1380.91 2722 1378.9C2720.29 1376.89 2718.22 1375.35 2715.79 1374.29C2713.37 1373.22 2710.76 1372.69 2707.98 1372.69C2704.37 1372.69 2700.97 1373.58 2697.78 1375.35C2694.64 1377.13 2692.1 1379.73 2690.15 1383.16C2688.19 1386.59 2687.22 1390.79 2687.22 1395.76C2687.22 1400.73 2688.19 1404.93 2690.15 1408.36C2692.1 1411.8 2694.64 1414.4 2697.78 1416.17C2700.97 1417.95 2704.37 1418.84 2707.98 1418.84C2710.76 1418.84 2713.34 1418.33 2715.7 1417.33C2718.13 1416.26 2720.2 1414.72 2721.92 1412.71C2723.69 1410.7 2724.99 1408.25 2725.82 1405.35H2732.39Z" fill="#E6E6E6"/>
<path d="M2781.41 1366.92C2787.21 1366.92 2792.06 1367.69 2795.97 1369.23C2799.93 1370.71 2803.09 1372.78 2805.46 1375.44C2807.83 1378.1 2809.54 1381.15 2810.61 1384.58C2811.67 1388.01 2812.21 1391.65 2812.21 1395.5C2812.21 1399.34 2811.64 1403.01 2810.52 1406.5C2809.4 1409.99 2807.59 1413.1 2805.11 1415.82C2802.68 1418.54 2799.51 1420.7 2795.61 1422.3C2791.71 1423.84 2786.97 1424.6 2781.41 1424.6H2762.69V1366.92H2781.41ZM2769.78 1417.95H2781.41C2786.08 1417.95 2789.93 1417.3 2792.95 1416C2796.02 1414.69 2798.45 1412.98 2800.22 1410.85C2802 1408.66 2803.24 1406.23 2803.95 1403.57C2804.72 1400.91 2805.11 1398.22 2805.11 1395.5C2805.11 1392.77 2804.72 1390.11 2803.95 1387.51C2803.24 1384.91 2802 1382.57 2800.22 1380.5C2798.45 1378.37 2796.02 1376.68 2792.95 1375.44C2789.93 1374.2 2786.08 1373.58 2781.41 1373.58H2769.78V1417.95Z" fill="#E6E6E6"/>
<path d="M2853.87 1410.32H2860.53C2860.05 1413.22 2858.99 1415.82 2857.33 1418.13C2855.73 1420.37 2853.6 1422.18 2850.94 1423.54C2848.34 1424.84 2845.32 1425.49 2841.89 1425.49C2837.75 1425.49 2834.02 1424.52 2830.71 1422.56C2827.39 1420.55 2824.76 1417.83 2822.81 1414.4C2820.92 1410.91 2819.97 1406.94 2819.97 1402.51C2819.97 1398.07 2820.89 1394.11 2822.72 1390.61C2824.61 1387.12 2827.19 1384.37 2830.44 1382.36C2833.69 1380.35 2837.36 1379.34 2841.45 1379.34C2845.76 1379.34 2849.4 1380.32 2852.36 1382.27C2855.38 1384.17 2857.6 1386.98 2859.02 1390.7C2860.5 1394.37 2861.09 1398.9 2860.79 1404.28H2827.07C2827.36 1407.18 2828.16 1409.72 2829.46 1411.91C2830.77 1414.1 2832.48 1415.82 2834.61 1417.06C2836.74 1418.24 2839.17 1418.84 2841.89 1418.84C2844.91 1418.84 2847.45 1418.07 2849.52 1416.53C2851.65 1414.93 2853.1 1412.86 2853.87 1410.32ZM2841.71 1386C2838.04 1386 2834.97 1387.07 2832.48 1389.19C2830 1391.32 2828.34 1394.22 2827.51 1397.89H2853.51C2853.28 1393.99 2852.01 1391.03 2849.7 1389.02C2847.45 1387.01 2844.79 1386 2841.71 1386Z" fill="#E6E6E6"/>
<path d="M2865.97 1380.23H2892.07V1386.89H2865.97V1380.23ZM2875.47 1368.69H2882.57V1424.6H2875.47V1368.69Z" fill="#E6E6E6"/>
<path d="M2916.36 1425.49C2912.87 1425.49 2909.64 1424.52 2906.69 1422.56C2903.79 1420.55 2901.45 1417.83 2899.68 1414.4C2897.96 1410.91 2897.1 1406.94 2897.1 1402.51C2897.1 1398.07 2897.99 1394.11 2899.76 1390.61C2901.54 1387.12 2903.93 1384.37 2906.95 1382.36C2910.03 1380.35 2913.46 1379.34 2917.25 1379.34C2921.39 1379.34 2924.52 1380.41 2926.65 1382.54C2928.84 1384.61 2930.32 1387.39 2931.09 1390.88C2931.92 1394.37 2932.33 1398.25 2932.33 1402.51C2932.33 1404.76 2932.1 1407.21 2931.62 1409.87C2931.15 1412.48 2930.32 1414.99 2929.14 1417.42C2928.01 1419.78 2926.42 1421.74 2924.35 1423.27C2922.28 1424.75 2919.61 1425.49 2916.36 1425.49ZM2918.13 1418.75C2921.15 1418.75 2923.64 1418.01 2925.59 1416.53C2927.6 1415.05 2929.08 1413.1 2930.03 1410.67C2930.97 1408.19 2931.45 1405.47 2931.45 1402.51C2931.45 1399.25 2930.94 1396.41 2929.94 1393.99C2928.99 1391.5 2927.51 1389.58 2925.5 1388.22C2923.55 1386.8 2921.09 1386.09 2918.13 1386.09C2913.7 1386.09 2910.27 1387.66 2907.84 1390.79C2905.41 1393.87 2904.2 1397.77 2904.2 1402.51C2904.2 1405.64 2904.79 1408.45 2905.98 1410.94C2907.22 1413.36 2908.88 1415.29 2910.95 1416.71C2913.08 1418.07 2915.47 1418.75 2918.13 1418.75ZM2931.45 1380.23H2938.55V1424.6H2932.07C2932.07 1424.6 2932.01 1424.07 2931.89 1423.01C2931.83 1421.94 2931.74 1420.7 2931.62 1419.28C2931.51 1417.86 2931.45 1416.68 2931.45 1415.73V1380.23Z" fill="#E6E6E6"/>
<path d="M2958.9 1362.48V1371.09H2949.67V1362.48H2958.9ZM2950.73 1380.23H2957.83V1424.6H2950.73V1380.23Z" fill="#E6E6E6"/>
<path d="M2970.85 1362.48H2977.95V1424.6H2970.85V1362.48Z" fill="#E6E6E6"/>
<path d="M2988.28 1410.32H2994.85C2995.03 1412.86 2995.97 1414.93 2997.69 1416.53C2999.46 1418.13 3002.01 1418.92 3005.32 1418.92C3007.33 1418.92 3008.9 1418.66 3010.03 1418.13C3011.21 1417.59 3012.07 1416.88 3012.6 1416C3013.13 1415.05 3013.4 1414.01 3013.4 1412.89C3013.4 1411.53 3013.04 1410.46 3012.33 1409.7C3011.68 1408.87 3010.76 1408.19 3009.58 1407.65C3008.46 1407.12 3007.16 1406.62 3005.68 1406.15C3003.96 1405.49 3002.19 1404.81 3000.35 1404.1C2998.58 1403.34 2996.89 1402.45 2995.29 1401.44C2993.76 1400.38 2992.51 1399.1 2991.57 1397.63C2990.62 1396.09 2990.15 1394.25 2990.15 1392.12C2990.15 1390.35 2990.5 1388.69 2991.21 1387.15C2991.92 1385.56 2992.93 1384.2 2994.23 1383.07C2995.59 1381.89 2997.16 1380.97 2998.93 1380.32C3000.77 1379.67 3002.78 1379.34 3004.97 1379.34C3007.92 1379.34 3010.41 1379.94 3012.42 1381.12C3014.49 1382.3 3016.06 1383.99 3017.12 1386.18C3018.25 1388.31 3018.84 1390.79 3018.9 1393.63H3012.78C3012.36 1390.97 3011.5 1389.05 3010.2 1387.86C3008.96 1386.62 3007.16 1386 3004.79 1386C3002.36 1386 3000.5 1386.53 2999.2 1387.6C2997.9 1388.66 2997.25 1390.08 2997.25 1391.86C2997.25 1393.16 2997.72 1394.25 2998.67 1395.14C2999.61 1395.97 3000.83 1396.74 3002.3 1397.45C3003.84 1398.1 3005.47 1398.78 3007.19 1399.49C3008.9 1400.2 3010.56 1400.91 3012.16 1401.62C3013.75 1402.33 3015.17 1403.16 3016.41 1404.1C3017.66 1405.05 3018.63 1406.23 3019.34 1407.65C3020.11 1409.01 3020.5 1410.73 3020.5 1412.8C3020.5 1415.29 3019.91 1417.5 3018.72 1419.46C3017.6 1421.35 3015.91 1422.83 3013.66 1423.89C3011.47 1424.96 3008.78 1425.49 3005.59 1425.49C3002.69 1425.49 3000.2 1425.14 2998.13 1424.43C2996.12 1423.66 2994.44 1422.68 2993.07 1421.5C2991.71 1420.26 2990.65 1418.95 2989.88 1417.59C2989.17 1416.23 2988.7 1414.9 2988.46 1413.6C2988.22 1412.3 2988.16 1411.2 2988.28 1410.32Z" fill="#E6E6E6"/>
<rect x="2192.61" y="1508.43" width="827.888" height="114.517" rx="46.545" fill="#F4F5F7"/>
<path d="M2504.22 1959.04H2539.69V1965.5H2504.22V1959.04ZM2539.26 1934.25H2546.15V1990.21H2539.26V1934.25ZM2497.94 1934.25H2504.83V1990.21H2497.94V1934.25Z" fill="#E6E6E6"/>
<path d="M2589.08 1976.35H2595.54C2595.08 1979.16 2594.05 1981.68 2592.44 1983.92C2590.89 1986.1 2588.82 1987.85 2586.24 1989.17C2583.72 1990.44 2580.79 1991.07 2577.46 1991.07C2573.44 1991.07 2569.83 1990.12 2566.61 1988.23C2563.4 1986.27 2560.85 1983.63 2558.95 1980.31C2557.12 1976.92 2556.2 1973.07 2556.2 1968.77C2556.2 1964.47 2557.09 1960.62 2558.87 1957.23C2560.7 1953.85 2563.2 1951.18 2566.36 1949.23C2569.51 1947.28 2573.07 1946.3 2577.03 1946.3C2581.22 1946.3 2584.75 1947.25 2587.62 1949.14C2590.55 1950.98 2592.7 1953.71 2594.08 1957.32C2595.51 1960.88 2596.08 1965.27 2595.8 1970.49H2563.08C2563.37 1973.3 2564.15 1975.77 2565.41 1977.9C2566.67 1980.02 2568.34 1981.68 2570.4 1982.89C2572.47 1984.04 2574.82 1984.61 2577.46 1984.61C2580.39 1984.61 2582.86 1983.86 2584.86 1982.37C2586.93 1980.82 2588.34 1978.81 2589.08 1976.35ZM2577.29 1952.76C2573.73 1952.76 2570.75 1953.79 2568.34 1955.86C2565.92 1957.92 2564.32 1960.74 2563.51 1964.29H2588.74C2588.51 1960.51 2587.27 1957.64 2585.04 1955.69C2582.86 1953.73 2580.27 1952.76 2577.29 1952.76Z" fill="#E6E6E6"/>
<path d="M2620.95 1991.07C2617.56 1991.07 2614.43 1990.12 2611.56 1988.23C2608.75 1986.27 2606.49 1983.63 2604.76 1980.31C2603.1 1976.92 2602.27 1973.07 2602.27 1968.77C2602.27 1964.47 2603.13 1960.62 2604.85 1957.23C2606.57 1953.85 2608.9 1951.18 2611.82 1949.23C2614.81 1947.28 2618.14 1946.3 2621.81 1946.3C2625.83 1946.3 2628.87 1947.33 2630.93 1949.4C2633.06 1951.41 2634.49 1954.11 2635.24 1957.49C2636.04 1960.88 2636.44 1964.64 2636.44 1968.77C2636.44 1970.95 2636.21 1973.33 2635.75 1975.92C2635.3 1978.44 2634.49 1980.88 2633.34 1983.23C2632.25 1985.53 2630.7 1987.42 2628.7 1988.91C2626.69 1990.35 2624.1 1991.07 2620.95 1991.07ZM2622.67 1984.52C2625.6 1984.52 2628.01 1983.81 2629.9 1982.37C2631.85 1980.94 2633.29 1979.04 2634.21 1976.69C2635.12 1974.28 2635.58 1971.64 2635.58 1968.77C2635.58 1965.61 2635.09 1962.86 2634.12 1960.51C2633.2 1958.1 2631.77 1956.23 2629.81 1954.91C2627.92 1953.53 2625.54 1952.84 2622.67 1952.84C2618.37 1952.84 2615.04 1954.37 2612.68 1957.41C2610.33 1960.39 2609.15 1964.18 2609.15 1968.77C2609.15 1971.81 2609.73 1974.54 2610.88 1976.95C2612.08 1979.3 2613.69 1981.17 2615.7 1982.54C2617.76 1983.86 2620.09 1984.52 2622.67 1984.52ZM2635.58 1947.16H2642.47V1990.21H2636.19C2636.19 1990.21 2636.13 1989.69 2636.01 1988.66C2635.96 1987.62 2635.87 1986.42 2635.75 1985.04C2635.64 1983.66 2635.58 1982.52 2635.58 1981.6V1947.16Z" fill="#E6E6E6"/>
<path d="M2654.55 1929.95H2661.44V1990.21H2654.55V1929.95Z" fill="#E6E6E6"/>
<path d="M2668.84 1947.16H2694.15V1953.62H2668.84V1947.16ZM2678.05 1935.97H2684.93V1990.21H2678.05V1935.97Z" fill="#E6E6E6"/>
<path d="M2732.93 1990.21V1963.17C2732.93 1960.94 2732.58 1959.1 2731.9 1957.67C2731.21 1956.17 2730.17 1955.05 2728.8 1954.31C2727.42 1953.56 2725.7 1953.19 2723.63 1953.19C2721.28 1953.19 2719.1 1953.79 2717.09 1955C2715.08 1956.2 2713.42 1957.87 2712.1 1959.99C2710.83 1962.06 2710.06 1964.47 2709.77 1967.22L2709.69 1962.23C2709.97 1959.82 2710.55 1957.64 2711.41 1955.69C2712.33 1953.73 2713.44 1952.07 2714.76 1950.69C2716.14 1949.26 2717.69 1948.17 2719.41 1947.42C2721.19 1946.67 2723.06 1946.3 2725.01 1946.3C2727.3 1946.3 2729.37 1946.65 2731.21 1947.33C2733.04 1948.02 2734.59 1949.03 2735.86 1950.35C2737.12 1951.67 2738.09 1953.27 2738.78 1955.17C2739.47 1957.01 2739.82 1959.1 2739.82 1961.45V1990.21H2732.93ZM2703.31 1990.21V1929.95H2710.2V1990.21H2703.31Z" fill="#E6E6E6"/>
<path d="M2788.57 1934.25C2794.2 1934.25 2798.9 1935 2802.69 1936.49C2806.54 1937.92 2809.61 1939.93 2811.9 1942.51C2814.2 1945.1 2815.86 1948.05 2816.9 1951.38C2817.93 1954.71 2818.45 1958.24 2818.45 1961.97C2818.45 1965.7 2817.9 1969.26 2816.81 1972.64C2815.72 1976.03 2813.97 1979.04 2811.56 1981.68C2809.2 1984.32 2806.13 1986.42 2802.35 1987.97C2798.56 1989.46 2793.97 1990.21 2788.57 1990.21H2770.41V1934.25H2788.57ZM2777.3 1983.75H2788.57C2793.11 1983.75 2796.84 1983.12 2799.76 1981.86C2802.75 1980.59 2805.1 1978.93 2806.82 1976.86C2808.54 1974.74 2809.75 1972.39 2810.44 1969.8C2811.18 1967.22 2811.56 1964.61 2811.56 1961.97C2811.56 1959.33 2811.18 1956.75 2810.44 1954.22C2809.75 1951.7 2808.54 1949.43 2806.82 1947.42C2805.1 1945.35 2802.75 1943.72 2799.76 1942.51C2796.84 1941.31 2793.11 1940.71 2788.57 1940.71H2777.3V1983.75Z" fill="#E6E6E6"/>
<path d="M2858.86 1976.35H2865.32C2864.86 1979.16 2863.83 1981.68 2862.22 1983.92C2860.67 1986.1 2858.6 1987.85 2856.02 1989.17C2853.49 1990.44 2850.57 1991.07 2847.24 1991.07C2843.22 1991.07 2839.61 1990.12 2836.39 1988.23C2833.18 1986.27 2830.62 1983.63 2828.73 1980.31C2826.89 1976.92 2825.98 1973.07 2825.98 1968.77C2825.98 1964.47 2826.87 1960.62 2828.64 1957.23C2830.48 1953.85 2832.98 1951.18 2836.13 1949.23C2839.29 1947.28 2842.85 1946.3 2846.81 1946.3C2851 1946.3 2854.53 1947.25 2857.4 1949.14C2860.32 1950.98 2862.48 1953.71 2863.85 1957.32C2865.29 1960.88 2865.86 1965.27 2865.58 1970.49H2832.86C2833.15 1973.3 2833.92 1975.77 2835.19 1977.9C2836.45 1980.02 2838.11 1981.68 2840.18 1982.89C2842.25 1984.04 2844.6 1984.61 2847.24 1984.61C2850.17 1984.61 2852.63 1983.86 2854.64 1982.37C2856.71 1980.82 2858.11 1978.81 2858.86 1976.35ZM2847.07 1952.76C2843.51 1952.76 2840.52 1953.79 2838.11 1955.86C2835.7 1957.92 2834.1 1960.74 2833.29 1964.29H2858.52C2858.29 1960.51 2857.05 1957.64 2854.81 1955.69C2852.63 1953.73 2850.05 1952.76 2847.07 1952.76Z" fill="#E6E6E6"/>
<path d="M2870.6 1947.16H2895.91V1953.62H2870.6V1947.16ZM2879.81 1935.97H2886.7V1990.21H2879.81V1935.97Z" fill="#E6E6E6"/>
<path d="M2919.48 1991.07C2916.09 1991.07 2912.96 1990.12 2910.09 1988.23C2907.28 1986.27 2905.02 1983.63 2903.29 1980.31C2901.63 1976.92 2900.8 1973.07 2900.8 1968.77C2900.8 1964.47 2901.66 1960.62 2903.38 1957.23C2905.1 1953.85 2907.43 1951.18 2910.35 1949.23C2913.34 1947.28 2916.67 1946.3 2920.34 1946.3C2924.36 1946.3 2927.4 1947.33 2929.46 1949.4C2931.59 1951.41 2933.02 1954.11 2933.77 1957.49C2934.57 1960.88 2934.97 1964.64 2934.97 1968.77C2934.97 1970.95 2934.74 1973.33 2934.29 1975.92C2933.83 1978.44 2933.02 1980.88 2931.87 1983.23C2930.78 1985.53 2929.23 1987.42 2927.23 1988.91C2925.22 1990.35 2922.63 1991.07 2919.48 1991.07ZM2921.2 1984.52C2924.13 1984.52 2926.54 1983.81 2928.43 1982.37C2930.38 1980.94 2931.82 1979.04 2932.74 1976.69C2933.65 1974.28 2934.11 1971.64 2934.11 1968.77C2934.11 1965.61 2933.63 1962.86 2932.65 1960.51C2931.73 1958.1 2930.3 1956.23 2928.35 1954.91C2926.45 1953.53 2924.07 1952.84 2921.2 1952.84C2916.9 1952.84 2913.57 1954.37 2911.21 1957.41C2908.86 1960.39 2907.68 1964.18 2907.68 1968.77C2907.68 1971.81 2908.26 1974.54 2909.41 1976.95C2910.61 1979.3 2912.22 1981.17 2914.23 1982.54C2916.29 1983.86 2918.62 1984.52 2921.2 1984.52ZM2934.11 1947.16H2941V1990.21H2934.72C2934.72 1990.21 2934.66 1989.69 2934.54 1988.66C2934.49 1987.62 2934.4 1986.42 2934.29 1985.04C2934.17 1983.66 2934.11 1982.52 2934.11 1981.6V1947.16Z" fill="#E6E6E6"/>
<path d="M2960.74 1929.95V1938.3H2951.79V1929.95H2960.74ZM2952.82 1947.16H2959.71V1990.21H2952.82V1947.16Z" fill="#E6E6E6"/>
<path d="M2972.33 1929.95H2979.22V1990.21H2972.33V1929.95Z" fill="#E6E6E6"/>
<path d="M2989.25 1976.35H2995.62C2995.79 1978.81 2996.71 1980.82 2998.37 1982.37C3000.09 1983.92 3002.56 1984.7 3005.78 1984.7C3007.73 1984.7 3009.25 1984.44 3010.34 1983.92C3011.49 1983.41 3012.32 1982.72 3012.83 1981.86C3013.35 1980.94 3013.61 1979.93 3013.61 1978.84C3013.61 1977.52 3013.26 1976.49 3012.58 1975.74C3011.94 1974.94 3011.06 1974.28 3009.91 1973.76C3008.82 1973.25 3007.55 1972.76 3006.12 1972.3C3004.46 1971.67 3002.73 1971.01 3000.95 1970.32C2999.23 1969.57 2997.6 1968.71 2996.05 1967.74C2994.56 1966.7 2993.35 1965.47 2992.43 1964.04C2991.51 1962.54 2991.05 1960.76 2991.05 1958.7C2991.05 1956.98 2991.4 1955.37 2992.09 1953.88C2992.78 1952.33 2993.75 1951.01 2995.01 1949.92C2996.33 1948.77 2997.86 1947.88 2999.58 1947.25C3001.36 1946.62 3003.31 1946.3 3005.43 1946.3C3008.3 1946.3 3010.71 1946.88 3012.66 1948.02C3014.67 1949.17 3016.19 1950.81 3017.22 1952.93C3018.32 1955 3018.89 1957.41 3018.95 1960.16H3013.01C3012.6 1957.58 3011.77 1955.71 3010.51 1954.57C3009.3 1953.36 3007.55 1952.76 3005.26 1952.76C3002.91 1952.76 3001.1 1953.27 2999.84 1954.31C2998.57 1955.34 2997.94 1956.72 2997.94 1958.44C2997.94 1959.7 2998.4 1960.76 2999.32 1961.63C3000.24 1962.43 3001.41 1963.17 3002.85 1963.86C3004.34 1964.49 3005.92 1965.15 3007.58 1965.84C3009.25 1966.53 3010.85 1967.22 3012.4 1967.91C3013.95 1968.6 3015.33 1969.4 3016.54 1970.32C3017.74 1971.24 3018.69 1972.39 3019.38 1973.76C3020.12 1975.08 3020.5 1976.75 3020.5 1978.76C3020.5 1981.17 3019.92 1983.32 3018.77 1985.21C3017.68 1987.05 3016.05 1988.48 3013.87 1989.52C3011.74 1990.55 3009.13 1991.07 3006.03 1991.07C3003.22 1991.07 3000.81 1990.72 2998.8 1990.03C2996.85 1989.29 2995.22 1988.34 2993.9 1987.19C2992.58 1985.99 2991.54 1984.73 2990.8 1983.41C2990.11 1982.09 2989.65 1980.79 2989.42 1979.53C2989.19 1978.27 2989.13 1977.21 2989.25 1976.35Z" fill="#E6E6E6"/>
<rect x="2310" y="2074" width="710.492" height="114.517" rx="46.545" fill="#F4F5F7"/>
<rect x="286.5" y="308.5" width="3192" height="698" rx="155.5" fill="white"/>
<rect x="286.5" y="308.5" width="3192" height="698" rx="155.5" stroke="#F4F5F7" stroke-width="11"/>
<rect x="502" y="559.57" width="202" height="195.86" rx="97.93" fill="#F0C33D"/>
<path d="M565 657.31L576.956 675.366C580.417 680.593 587.778 681.383 592.269 677.01L641 629.57" stroke="#002340" stroke-width="15.96" stroke-linecap="round"/>
<path d="M784 657.5H1156" stroke="#002340" stroke-width="11" stroke-linecap="square"/>
<rect x="1236" y="559.57" width="202" height="195.86" rx="97.93" fill="#F0C33D"/>
<path d="M1299 657.31L1310.96 675.366C1314.42 680.593 1321.78 681.383 1326.27 677.01L1375 629.57" stroke="#002340" stroke-width="15.96" stroke-linecap="round"/>
<path d="M1539 657.5H1911" stroke="#002340" stroke-width="11" stroke-linecap="square"/>
<rect x="2012" y="559.57" width="202" height="195.86" rx="97.93" fill="#F0C33D"/>
<path d="M2075 657.31L2086.96 675.366C2090.42 680.593 2097.78 681.383 2102.27 677.01L2151 629.57" stroke="#002340" stroke-width="15.96" stroke-linecap="round"/>
<path d="M2299 657.5H2671" stroke="#002340" stroke-width="11" stroke-linecap="square"/>
<path d="M2916.61 494.832C2932.8 464.564 2976.2 464.564 2992.39 494.832V494.832C3002.05 512.899 3023.13 521.629 3042.73 515.687V515.687C3075.58 505.732 3106.27 536.416 3096.31 569.266V569.266C3090.37 588.875 3099.1 609.95 3117.17 619.614V619.614C3147.44 635.803 3147.44 679.197 3117.17 695.386V695.386C3099.1 705.05 3090.37 726.125 3096.31 745.734V745.734C3106.27 778.584 3075.58 809.268 3042.73 799.313V799.313C3023.13 793.371 3002.05 802.101 2992.39 820.167V820.167C2976.2 850.436 2932.8 850.436 2916.61 820.167V820.167C2906.95 802.101 2885.87 793.371 2866.27 799.313V799.313C2833.42 809.268 2802.73 778.584 2812.69 745.734V745.734C2818.63 726.125 2809.9 705.05 2791.83 695.386V695.386C2761.56 679.197 2761.56 635.803 2791.83 619.614V619.614C2809.9 609.95 2818.63 588.875 2812.69 569.266V569.266C2802.73 536.416 2833.42 505.732 2866.27 515.687V515.687C2885.87 521.629 2906.95 512.899 2916.61 494.832V494.832Z" fill="#002340"/>
<path d="M2906 656L2928.88 683.461C2932.69 688.024 2939.6 688.286 2943.74 684.024L3002 624" stroke="white" stroke-width="15.96" stroke-linecap="round"/>
<rect x="1802" y="971" width="1096.12" height="209.284" rx="104.642" fill="#9C5FE6"/>
<path d="M1950.13 1086.85C1949.4 1091.96 1947.64 1096.39 1944.86 1100.12C1942.09 1103.84 1938.54 1106.73 1934.23 1108.78C1929.99 1110.75 1925.24 1111.74 1919.97 1111.74C1915.08 1111.74 1910.54 1110.9 1906.38 1109.22C1902.21 1107.46 1898.55 1104.98 1895.41 1101.76C1892.34 1098.54 1889.93 1094.67 1888.17 1090.14C1886.42 1085.6 1885.54 1080.56 1885.54 1075.01C1885.54 1069.38 1886.42 1064.33 1888.17 1059.87C1889.93 1055.34 1892.34 1051.47 1895.41 1048.25C1898.55 1045.03 1902.21 1042.59 1906.38 1040.9C1910.54 1039.15 1915.08 1038.27 1919.97 1038.27C1925.31 1038.27 1930.1 1039.3 1934.34 1041.34C1938.65 1043.32 1942.2 1046.2 1944.97 1050.01C1947.75 1053.73 1949.51 1058.19 1950.24 1063.38H1942.12C1941.1 1059.73 1939.49 1056.66 1937.3 1054.17C1935.18 1051.69 1932.62 1049.79 1929.62 1048.47C1926.63 1047.15 1923.41 1046.5 1919.97 1046.5C1915.51 1046.5 1911.31 1047.59 1907.36 1049.79C1903.49 1051.98 1900.35 1055.2 1897.93 1059.44C1895.52 1063.67 1894.32 1068.86 1894.32 1075.01C1894.32 1081.15 1895.52 1086.34 1897.93 1090.58C1900.35 1094.82 1903.49 1098.03 1907.36 1100.22C1911.31 1102.42 1915.51 1103.51 1919.97 1103.51C1923.41 1103.51 1926.59 1102.89 1929.51 1101.65C1932.51 1100.33 1935.07 1098.43 1937.19 1095.95C1939.38 1093.46 1940.99 1090.43 1942.01 1086.85H1950.13ZM1986.69 1111.74C1982.01 1111.74 1977.62 1110.61 1973.53 1108.34C1969.44 1106.07 1966.11 1102.82 1963.55 1098.58C1961.07 1094.27 1959.82 1089.19 1959.82 1083.34C1959.82 1077.49 1961.07 1072.45 1963.55 1068.21C1966.11 1063.89 1969.44 1060.57 1973.53 1058.23C1977.62 1055.89 1982.01 1054.72 1986.69 1054.72C1991.37 1054.72 1995.72 1055.89 1999.74 1058.23C2003.83 1060.57 2007.12 1063.89 2009.6 1068.21C2012.09 1072.45 2013.33 1077.49 2013.33 1083.34C2013.33 1089.19 2012.09 1094.27 2009.6 1098.58C2007.12 1102.82 2003.83 1106.07 1999.74 1108.34C1995.72 1110.61 1991.37 1111.74 1986.69 1111.74ZM1986.69 1103.51C1989.76 1103.51 1992.65 1102.75 1995.35 1101.21C1998.05 1099.68 2000.25 1097.41 2001.93 1094.41C2003.68 1091.34 2004.56 1087.65 2004.56 1083.34C2004.56 1079.03 2003.68 1075.37 2001.93 1072.37C2000.25 1069.3 1998.05 1066.96 1995.35 1065.36C1992.65 1063.75 1989.76 1062.94 1986.69 1062.94C1983.62 1062.94 1980.69 1063.75 1977.92 1065.36C1975.21 1066.89 1972.98 1069.19 1971.23 1072.26C1969.47 1075.26 1968.6 1078.95 1968.6 1083.34C1968.6 1087.65 1969.44 1091.34 1971.12 1094.41C1972.87 1097.41 1975.14 1099.68 1977.92 1101.21C1980.69 1102.75 1983.62 1103.51 1986.69 1103.51ZM2024.46 1055.82H2033.24V1110.64H2024.46V1055.82ZM2052.1 1054.72C2055.02 1054.72 2057.65 1055.16 2059.99 1056.04C2062.33 1056.91 2064.3 1058.19 2065.91 1059.87C2067.52 1061.55 2068.76 1063.6 2069.64 1066.01C2070.52 1068.35 2070.96 1071.02 2070.96 1074.02V1110.64H2062.18V1076.21C2062.18 1071.97 2061.2 1068.79 2059.22 1066.67C2057.25 1064.55 2054.29 1063.49 2050.34 1063.49C2047.34 1063.49 2044.57 1064.26 2042.01 1065.79C2039.45 1067.33 2037.33 1069.45 2035.65 1072.15C2034.04 1074.79 2033.05 1077.86 2032.69 1081.37L2032.58 1075.01C2032.94 1071.94 2033.68 1069.16 2034.77 1066.67C2035.94 1064.19 2037.37 1062.07 2039.05 1060.31C2040.8 1058.48 2042.78 1057.1 2044.97 1056.15C2047.24 1055.2 2049.61 1054.72 2052.1 1054.72ZM2088.94 1054.72C2091.86 1054.72 2094.49 1055.16 2096.83 1056.04C2099.17 1056.91 2101.15 1058.19 2102.75 1059.87C2104.36 1061.55 2105.61 1063.6 2106.48 1066.01C2107.36 1068.35 2107.8 1071.02 2107.8 1074.02V1110.64H2099.03V1076.21C2099.03 1071.97 2098.04 1068.79 2096.07 1066.67C2094.09 1064.55 2091.13 1063.49 2087.18 1063.49C2084.19 1063.49 2081.41 1064.26 2078.85 1065.79C2076.29 1067.33 2074.17 1069.45 2072.49 1072.15C2070.88 1074.79 2069.9 1077.86 2069.53 1081.37L2069.42 1075.01C2069.79 1071.94 2070.52 1069.16 2071.61 1066.67C2072.78 1064.19 2074.21 1062.07 2075.89 1060.31C2077.64 1058.48 2079.62 1057.1 2081.81 1056.15C2084.08 1055.2 2086.45 1054.72 2088.94 1054.72ZM2149.43 1111.74C2145.41 1111.74 2142.12 1110.82 2139.56 1109C2137 1107.1 2134.99 1104.68 2133.53 1101.76C2132.14 1098.76 2131.15 1095.66 2130.57 1092.44C2129.98 1089.15 2129.69 1086.12 2129.69 1083.34C2129.69 1079.39 2129.95 1075.7 2130.46 1072.26C2131.04 1068.83 2132.03 1065.79 2133.42 1063.16C2134.81 1060.53 2136.78 1058.48 2139.34 1057.02C2141.97 1055.49 2145.33 1054.72 2149.43 1054.72C2153.81 1054.72 2157.8 1055.96 2161.38 1058.45C2164.96 1060.93 2167.81 1064.33 2169.93 1068.65C2172.12 1072.96 2173.22 1077.86 2173.22 1083.34C2173.22 1088.82 2172.12 1093.72 2169.93 1098.03C2167.74 1102.27 2164.81 1105.63 2161.16 1108.12C2157.58 1110.53 2153.67 1111.74 2149.43 1111.74ZM2147.23 1103.4C2150.6 1103.4 2153.56 1102.56 2156.12 1100.88C2158.75 1099.13 2160.79 1096.75 2162.26 1093.76C2163.72 1090.69 2164.45 1087.21 2164.45 1083.34C2164.45 1077.49 2162.95 1072.67 2159.95 1068.86C2156.96 1064.99 2152.72 1063.05 2147.23 1063.05C2144.02 1063.05 2141.17 1063.93 2138.68 1065.69C2136.2 1067.37 2134.26 1069.74 2132.87 1072.81C2131.48 1075.81 2130.79 1079.32 2130.79 1083.34C2130.79 1086.99 2131.37 1090.36 2132.54 1093.43C2133.78 1096.42 2135.61 1098.84 2138.02 1100.66C2140.44 1102.49 2143.51 1103.4 2147.23 1103.4ZM2122.01 1055.82H2130.46L2130.79 1067.33V1132.57H2122.01V1055.82ZM2185.54 1033.89H2194.31V1110.64H2185.54V1033.89ZM2248.53 1092.99H2256.75C2256.17 1096.57 2254.85 1099.79 2252.81 1102.64C2250.83 1105.41 2248.2 1107.64 2244.91 1109.33C2241.69 1110.93 2237.97 1111.74 2233.73 1111.74C2228.61 1111.74 2224 1110.53 2219.91 1108.12C2215.82 1105.63 2212.56 1102.27 2210.15 1098.03C2207.81 1093.72 2206.64 1088.82 2206.64 1083.34C2206.64 1077.86 2207.78 1072.96 2210.04 1068.65C2212.38 1064.33 2215.56 1060.93 2219.58 1058.45C2223.6 1055.96 2228.13 1054.72 2233.18 1054.72C2238.51 1054.72 2243.01 1055.93 2246.67 1058.34C2250.39 1060.68 2253.13 1064.15 2254.89 1068.76C2256.72 1073.29 2257.45 1078.88 2257.08 1085.53H2215.41C2215.78 1089.11 2216.77 1092.26 2218.38 1094.96C2219.98 1097.67 2222.1 1099.79 2224.74 1101.32C2227.37 1102.78 2230.36 1103.51 2233.73 1103.51C2237.45 1103.51 2240.6 1102.56 2243.16 1100.66C2245.79 1098.69 2247.58 1096.13 2248.53 1092.99ZM2233.51 1062.94C2228.97 1062.94 2225.17 1064.26 2222.1 1066.89C2219.03 1069.52 2216.99 1073.1 2215.96 1077.64H2248.09C2247.8 1072.81 2246.23 1069.16 2243.38 1066.67C2240.6 1064.19 2237.31 1062.94 2233.51 1062.94ZM2263.48 1055.82H2295.72V1064.04H2263.48V1055.82ZM2275.22 1041.56H2283.99V1110.64H2275.22V1041.56ZM2343.83 1092.99H2352.05C2351.47 1096.57 2350.15 1099.79 2348.11 1102.64C2346.13 1105.41 2343.5 1107.64 2340.21 1109.33C2337 1110.93 2333.27 1111.74 2329.03 1111.74C2323.91 1111.74 2319.31 1110.53 2315.21 1108.12C2311.12 1105.63 2307.87 1102.27 2305.45 1098.03C2303.11 1093.72 2301.94 1088.82 2301.94 1083.34C2301.94 1077.86 2303.08 1072.96 2305.34 1068.65C2307.68 1064.33 2310.86 1060.93 2314.88 1058.45C2318.9 1055.96 2323.44 1054.72 2328.48 1054.72C2333.82 1054.72 2338.31 1055.93 2341.97 1058.34C2345.69 1060.68 2348.44 1064.15 2350.19 1068.76C2352.02 1073.29 2352.75 1078.88 2352.38 1085.53H2310.72C2311.08 1089.11 2312.07 1092.26 2313.68 1094.96C2315.28 1097.67 2317.4 1099.79 2320.04 1101.32C2322.67 1102.78 2325.67 1103.51 2329.03 1103.51C2332.76 1103.51 2335.9 1102.56 2338.46 1100.66C2341.09 1098.69 2342.88 1096.13 2343.83 1092.99ZM2328.81 1062.94C2324.28 1062.94 2320.47 1064.26 2317.4 1066.89C2314.33 1069.52 2312.29 1073.1 2311.26 1077.64H2343.39C2343.1 1072.81 2341.53 1069.16 2338.68 1066.67C2335.9 1064.19 2332.61 1062.94 2328.81 1062.94ZM2381.78 1055.82H2391.21L2410.84 1108.45L2403.16 1110.64L2381.78 1055.82ZM2432.77 1055.82L2402.18 1132.57H2392.64L2405.91 1102.97L2423.45 1055.82H2432.77ZM2464.26 1111.74C2459.59 1111.74 2455.2 1110.61 2451.11 1108.34C2447.01 1106.07 2443.69 1102.82 2441.13 1098.58C2438.64 1094.27 2437.4 1089.19 2437.4 1083.34C2437.4 1077.49 2438.64 1072.45 2441.13 1068.21C2443.69 1063.89 2447.01 1060.57 2451.11 1058.23C2455.2 1055.89 2459.59 1054.72 2464.26 1054.72C2468.94 1054.72 2473.29 1055.89 2477.31 1058.23C2481.41 1060.57 2484.7 1063.89 2487.18 1068.21C2489.67 1072.45 2490.91 1077.49 2490.91 1083.34C2490.91 1089.19 2489.67 1094.27 2487.18 1098.58C2484.7 1102.82 2481.41 1106.07 2477.31 1108.34C2473.29 1110.61 2468.94 1111.74 2464.26 1111.74ZM2464.26 1103.51C2467.33 1103.51 2470.22 1102.75 2472.93 1101.21C2475.63 1099.68 2477.82 1097.41 2479.51 1094.41C2481.26 1091.34 2482.14 1087.65 2482.14 1083.34C2482.14 1079.03 2481.26 1075.37 2479.51 1072.37C2477.82 1069.3 2475.63 1066.96 2472.93 1065.36C2470.22 1063.75 2467.33 1062.94 2464.26 1062.94C2461.19 1062.94 2458.27 1063.75 2455.49 1065.36C2452.79 1066.89 2450.56 1069.19 2448.8 1072.26C2447.05 1075.26 2446.17 1078.95 2446.17 1083.34C2446.17 1087.65 2447.01 1091.34 2448.69 1094.41C2450.45 1097.41 2452.71 1099.68 2455.49 1101.21C2458.27 1102.75 2461.19 1103.51 2464.26 1103.51ZM2548.53 1110.64H2539.76V1055.82H2548.53V1110.64ZM2540.31 1085.09L2540.42 1088.16C2540.35 1089.04 2540.13 1090.39 2539.76 1092.22C2539.47 1094.05 2538.92 1096.09 2538.12 1098.36C2537.39 1100.55 2536.29 1102.67 2534.83 1104.72C2533.44 1106.77 2531.61 1108.45 2529.34 1109.76C2527.15 1111.08 2524.41 1111.74 2521.12 1111.74C2519 1111.74 2516.81 1111.41 2514.54 1110.75C2512.35 1110.17 2510.3 1109.18 2508.4 1107.79C2506.5 1106.33 2504.97 1104.32 2503.8 1101.76C2502.63 1099.2 2502.04 1096.02 2502.04 1092.22V1055.82H2510.81V1090.03C2510.81 1093.32 2511.33 1095.91 2512.35 1097.81C2513.45 1099.64 2514.91 1100.96 2516.73 1101.76C2518.56 1102.56 2520.61 1102.97 2522.88 1102.97C2526.6 1102.97 2529.71 1102.02 2532.2 1100.12C2534.68 1098.21 2536.58 1095.88 2537.9 1093.1C2539.21 1090.32 2540.02 1087.65 2540.31 1085.09ZM2562.76 1055.82H2571.53V1110.64H2562.76V1055.82ZM2589.07 1064.04C2585.34 1064.04 2582.2 1064.99 2579.64 1066.89C2577.16 1068.72 2575.18 1070.98 2573.72 1073.69C2572.33 1076.32 2571.42 1078.88 2570.98 1081.37L2570.87 1075.01C2570.87 1074.35 2571.02 1073.25 2571.31 1071.72C2571.6 1070.18 2572.15 1068.46 2572.95 1066.56C2573.76 1064.59 2574.82 1062.72 2576.13 1060.97C2577.52 1059.14 2579.28 1057.64 2581.4 1056.47C2583.52 1055.3 2586.07 1054.72 2589.07 1054.72V1064.04ZM2640.61 1075.99V1070.29L2681.84 1110.64H2669.89L2632.39 1073.36L2665.39 1039.37H2677.23L2640.61 1075.99ZM2623.62 1039.37H2632.39V1110.64H2623.62V1039.37ZM2745.97 1039.37L2720.75 1086.19V1110.64H2711.98V1086.19L2686.76 1039.37H2696.63L2718.34 1080.49H2714.83L2736.1 1039.37H2745.97ZM2814.37 1086.85C2813.64 1091.96 2811.88 1096.39 2809.11 1100.12C2806.33 1103.84 2802.78 1106.73 2798.47 1108.78C2794.23 1110.75 2789.48 1111.74 2784.22 1111.74C2779.32 1111.74 2774.79 1110.9 2770.62 1109.22C2766.45 1107.46 2762.8 1104.98 2759.65 1101.76C2756.58 1098.54 2754.17 1094.67 2752.42 1090.14C2750.66 1085.6 2749.79 1080.56 2749.79 1075.01C2749.79 1069.38 2750.66 1064.33 2752.42 1059.87C2754.17 1055.34 2756.58 1051.47 2759.65 1048.25C2762.8 1045.03 2766.45 1042.59 2770.62 1040.9C2774.79 1039.15 2779.32 1038.27 2784.22 1038.27C2789.55 1038.27 2794.34 1039.3 2798.58 1041.34C2802.89 1043.32 2806.44 1046.2 2809.22 1050.01C2811.99 1053.73 2813.75 1058.19 2814.48 1063.38H2806.37C2805.34 1059.73 2803.73 1056.66 2801.54 1054.17C2799.42 1051.69 2796.86 1049.79 2793.87 1048.47C2790.87 1047.15 2787.65 1046.5 2784.22 1046.5C2779.76 1046.5 2775.55 1047.59 2771.61 1049.79C2767.73 1051.98 2764.59 1055.2 2762.18 1059.44C2759.76 1063.67 2758.56 1068.86 2758.56 1075.01C2758.56 1081.15 2759.76 1086.34 2762.18 1090.58C2764.59 1094.82 2767.73 1098.03 2771.61 1100.22C2775.55 1102.42 2779.76 1103.51 2784.22 1103.51C2787.65 1103.51 2790.83 1102.89 2793.76 1101.65C2796.75 1100.33 2799.31 1098.43 2801.43 1095.95C2803.62 1093.46 2805.23 1090.43 2806.26 1086.85H2814.37Z" fill="white"/>
<path d="M2952.06 791.822L2839.11 906.588C2836.1 909.644 2838.02 914.821 2842.3 915.172L2907.97 920.575C2909.73 920.72 2911.43 921.328 2912.88 922.337L2967.01 959.918C2970.53 962.363 2975.31 959.589 2974.93 955.319L2960.7 794.922C2960.32 790.628 2955.08 788.75 2952.06 791.822Z" fill="#9C5FE6" stroke="white" stroke-width="5"/>
</svg>
