<svg width="460" height="412" viewBox="0 0 460 412" fill="none" xmlns="http://www.w3.org/2000/svg">
<g clip-path="url(#clip0_29_6184)">
<mask id="mask0_29_6184" style="mask-type:luminance" maskUnits="userSpaceOnUse" x="26" y="0" width="407" height="412">
<path d="M432.599 0H26.6016V412H432.599V0Z" fill="white"/>
</mask>
<g mask="url(#mask0_29_6184)">
<path d="M228.061 257.918V206.148V206.138H282.526L347.883 259.224V323.799H297.028V293.344C292.394 297.714 287.397 301.673 282.102 305.181C264.127 317.08 243.244 323.367 221.731 323.367C206.775 323.367 192.243 320.376 178.57 314.468C165.362 308.792 153.51 300.652 143.332 290.29C133.155 279.928 125.16 267.858 119.574 254.411C113.783 240.468 110.845 225.683 110.845 210.456V206.77H164.607V210.456C164.607 242.522 190.237 268.618 221.731 268.618C232.819 268.618 243.565 265.395 252.801 259.277C253.463 258.845 254.125 258.381 254.766 257.918H228.061Z" fill="#202530"/>
<path d="M228.061 257.918V206.148V206.138H282.526L347.883 259.224V323.799H297.028V293.344C292.394 297.714 287.397 301.673 282.102 305.181C264.127 317.08 243.244 323.367 221.731 323.367C206.775 323.367 192.243 320.376 178.57 314.468C165.362 308.792 153.51 300.652 143.332 290.29C133.155 279.928 125.16 267.858 119.574 254.411C113.783 240.468 110.845 225.683 110.845 210.456V206.77H164.607V210.456C164.607 242.522 190.237 268.618 221.731 268.618C232.819 268.618 243.565 265.395 252.801 259.277C253.463 258.845 254.125 258.381 254.766 257.918H228.061Z" stroke="url(#paint0_linear_29_6184)" stroke-width="1.50118"/>
<path d="M230.458 154.234V206.135L230.448 206.124H176.082L110.845 152.925V88.4737H161.608V119.074C181.998 99.5885 209.077 88.5685 237.2 88.5685C252.128 88.5685 266.634 91.5668 280.292 97.478C293.476 103.188 305.307 111.337 315.466 121.723C325.615 132.11 333.595 144.206 339.17 157.686C344.952 171.661 347.883 186.481 347.883 201.744V205.437H294.219V201.744C294.219 169.603 268.636 143.446 237.2 143.446C225.182 143.446 213.723 147.225 204.132 154.234H230.458Z" fill="#202530"/>
<path d="M230.458 154.234V206.135L230.448 206.124H176.082L110.845 152.925V88.4737H161.608V119.074C181.998 99.5885 209.077 88.5685 237.2 88.5685C252.128 88.5685 266.634 91.5668 280.292 97.478C293.476 103.188 305.307 111.337 315.466 121.723C325.615 132.11 333.595 144.206 339.17 157.686C344.952 171.661 347.883 186.481 347.883 201.744V205.437H294.219V201.744C294.219 169.603 268.636 143.446 237.2 143.446C225.182 143.446 213.723 147.225 204.132 154.234H230.458Z" stroke="url(#paint1_linear_29_6184)" stroke-width="1.50118"/>
<mask id="mask1_29_6184" style="mask-type:luminance" maskUnits="userSpaceOnUse" x="202" y="208" width="102" height="104">
<path d="M202.445 208.713H303.945V311.713H202.445V208.713Z" fill="white"/>
</mask>
<g mask="url(#mask1_29_6184)">
<path d="M303.953 262.437C302.806 290.802 279.129 312.836 251.114 311.608C223.098 310.38 201.283 286.352 202.43 257.987C203.577 229.622 227.254 207.589 255.269 208.817C283.284 210.045 305.1 234.072 303.953 262.437Z" fill="url(#paint2_linear_29_6184)"/>
<path d="M303.953 262.437C302.806 290.802 279.129 312.836 251.114 311.608C223.098 310.38 201.283 286.352 202.43 257.987C203.577 229.622 227.254 207.589 255.269 208.817C283.284 210.045 305.1 234.072 303.953 262.437Z" stroke="url(#paint3_linear_29_6184)" stroke-width="1.69201"/>
<mask id="mask2_29_6184" style="mask-type:luminance" maskUnits="userSpaceOnUse" x="219" y="225" width="69" height="70">
<path d="M219.195 225.709H287.2V294.719H219.195V225.709Z" fill="white"/>
</mask>
<g mask="url(#mask2_29_6184)">
<path d="M262.446 253.375C262.446 249.685 259.655 246.709 256.187 246.709H249.11C246.094 246.709 243.641 249.312 243.641 252.516C243.641 256.007 245.136 257.238 247.363 258.039L258.724 262.044C260.951 262.845 262.446 264.076 262.446 267.566C262.446 270.771 259.993 273.374 256.977 273.374H249.9C246.432 273.374 243.641 270.398 243.641 266.707" stroke="white" stroke-width="4.2295" stroke-linecap="round" stroke-linejoin="round"/>
<path d="M253.023 277.209V242.875" stroke="white" stroke-width="4.2295" stroke-linecap="round" stroke-linejoin="round"/>
</g>
</g>
<mask id="mask3_29_6184" style="mask-type:luminance" maskUnits="userSpaceOnUse" x="93" y="129" width="83" height="83">
<path d="M93.8438 129.402H175.043V211.802H93.8438V129.402Z" fill="white"/>
</mask>
<g mask="url(#mask3_29_6184)">
<path d="M175.048 172.381C174.131 195.073 155.189 212.7 132.777 211.718C110.365 210.735 92.9126 191.514 93.83 168.821C94.7474 146.129 113.689 128.503 136.101 129.485C158.514 130.467 175.966 149.689 175.048 172.381Z" fill="url(#paint4_linear_29_6184)"/>
<path d="M175.048 172.381C174.131 195.073 155.189 212.7 132.777 211.718C110.365 210.735 92.9126 191.514 93.83 168.821C94.7474 146.129 113.689 128.503 136.101 129.485C158.514 130.467 175.966 149.689 175.048 172.381Z" stroke="url(#paint5_linear_29_6184)" stroke-width="1.35299"/>
<path d="M126.466 169.626L126.584 170.089C126.65 170.344 126.248 170.552 125.688 170.552H124.624C124.064 170.552 123.609 171.013 123.609 171.582V172.942C123.609 173.511 124.064 173.972 124.624 173.972H127.1C127.14 175.3 126.901 176.588 126.425 177.876C125.949 179.163 125.196 180.371 124.244 181.417V184.251C124.244 184.819 124.699 185.281 125.259 185.281H144.169C144.729 185.281 145.184 184.819 145.184 184.251V182.246C145.184 181.678 144.729 181.214 144.169 181.211L129.003 181.135C129.796 180.29 130.392 179.284 130.868 178.157C131.304 177.03 131.542 175.904 131.542 174.817C131.542 174.454 131.502 174.173 131.502 173.972H138.141C138.701 173.972 139.156 173.511 139.156 172.942V171.582C139.156 171.013 138.701 170.552 138.141 170.552H132.12C131.56 170.552 131.043 170.317 130.966 170.028L130.827 169.505C130.669 168.902 130.51 168.298 130.392 167.654C130.233 167.011 130.193 166.447 130.193 165.964C130.193 164.434 130.669 163.188 131.621 162.222C132.573 161.296 133.842 160.813 135.428 160.813C137.054 160.813 138.323 161.296 139.235 162.222C140.148 163.188 140.703 164.475 140.94 166.165H145.263C145.026 163.268 144.033 160.975 142.288 159.325C140.544 157.715 138.163 156.869 135.229 156.869C133.484 156.869 131.899 157.272 130.471 157.996C129.043 158.76 127.894 159.808 127.06 161.135C126.227 162.463 125.83 163.993 125.83 165.683C125.83 166.327 125.871 166.93 125.99 167.494C126.069 168.057 126.228 168.74 126.466 169.626Z" fill="white"/>
</g>
<mask id="mask4_29_6184" style="mask-type:luminance" maskUnits="userSpaceOnUse" x="281" y="105" width="82" height="84">
<path d="M281.617 105.713H362.817V188.113H281.617V105.713Z" fill="white"/>
</mask>
<g mask="url(#mask4_29_6184)">
<path d="M362.822 148.692C361.904 171.384 342.963 189.011 320.55 188.028C298.138 187.046 280.686 167.824 281.603 145.132C282.521 122.44 301.463 104.813 323.875 105.796C346.287 106.778 363.739 126 362.822 148.692Z" fill="url(#paint6_linear_29_6184)"/>
<path d="M362.822 148.692C361.904 171.384 342.963 189.011 320.55 188.028C298.138 187.046 280.686 167.824 281.603 145.132C282.521 122.44 301.463 104.813 323.875 105.796C346.287 106.778 363.739 126 362.822 148.692Z" stroke="url(#paint7_linear_29_6184)" stroke-width="1.35299"/>
<path d="M311.046 148.916C310.486 148.916 310.031 149.378 310.031 149.946V150.921C310.031 151.489 310.486 151.951 311.046 151.951H312.782C313.26 155.106 314.497 157.575 316.41 159.355C318.324 161.135 320.756 161.985 323.706 161.985C326.777 161.985 329.248 161.135 331.122 159.355C332.956 157.575 334.033 155.188 334.352 152.113H329.886C329.567 153.974 328.928 155.391 327.892 156.442C326.856 157.494 325.539 158.02 323.905 158.02C322.191 158.02 320.756 157.494 319.639 156.442C318.523 155.391 317.767 153.893 317.407 151.951H321.893C322.454 151.951 322.986 151.496 323.082 150.936L323.254 149.931C323.349 149.371 322.972 148.916 322.412 148.916H318.143C317.583 148.916 317.119 148.608 317.108 148.229L317.088 147.541C317.088 147.096 317.088 146.732 317.128 146.488H322.97C323.531 146.488 324.064 146.034 324.161 145.474L324.328 144.51C324.425 143.95 324.049 143.495 323.489 143.495H317.407C317.686 141.472 318.404 139.935 319.56 138.802C320.677 137.709 322.112 137.142 323.866 137.142C325.54 137.142 326.896 137.669 327.933 138.72C328.969 139.772 329.646 141.228 329.886 143.049H334.391C334.152 140.055 333.076 137.627 331.202 135.847C329.289 134.068 326.816 133.178 323.706 133.178C320.756 133.178 318.284 134.108 316.33 135.929C314.376 137.75 313.181 140.258 312.782 143.495H311.046C310.486 143.495 310.031 143.957 310.031 144.525V145.458C310.031 146.027 310.486 146.488 311.046 146.488H312.583C312.543 146.812 312.543 147.176 312.543 147.581C312.543 148.269 312.543 148.714 312.583 148.916H311.046Z" fill="white"/>
</g>
</g>
</g>
<defs>
<linearGradient id="paint0_linear_29_6184" x1="362.206" y1="226.464" x2="294.971" y2="292.427" gradientUnits="userSpaceOnUse">
<stop stop-color="#444F66"/>
<stop offset="0.5" stop-color="#424D63" stop-opacity="0.55"/>
<stop offset="1" stop-color="#404B61" stop-opacity="0.1"/>
</linearGradient>
<linearGradient id="paint1_linear_29_6184" x1="91.1139" y1="113.678" x2="261.286" y2="169.349" gradientUnits="userSpaceOnUse">
<stop stop-color="#444F66"/>
<stop offset="0.5" stop-color="#424D63" stop-opacity="0.55"/>
<stop offset="1" stop-color="#404B61" stop-opacity="0.1"/>
</linearGradient>
<linearGradient id="paint2_linear_29_6184" x1="205.073" y1="152.702" x2="272.926" y2="366.937" gradientUnits="userSpaceOnUse">
<stop stop-color="#303745"/>
<stop offset="0.5" stop-color="#292F3B"/>
<stop offset="1" stop-color="#212630"/>
</linearGradient>
<linearGradient id="paint3_linear_29_6184" x1="338.111" y1="360.901" x2="142.338" y2="153.186" gradientUnits="userSpaceOnUse">
<stop stop-color="#626262" stop-opacity="0"/>
<stop offset="0.39" stop-color="#666E83" stop-opacity="0.075"/>
<stop offset="0.78" stop-color="#6A7AA4" stop-opacity="0.15"/>
<stop offset="0.89" stop-color="#6A7AA3" stop-opacity="0.275"/>
<stop offset="1" stop-color="#6979A3" stop-opacity="0.4"/>
</linearGradient>
<linearGradient id="paint4_linear_29_6184" x1="95.9444" y1="84.5936" x2="150.226" y2="255.981" gradientUnits="userSpaceOnUse">
<stop stop-color="#303745"/>
<stop offset="0.5" stop-color="#292F3B"/>
<stop offset="1" stop-color="#212630"/>
</linearGradient>
<linearGradient id="paint5_linear_29_6184" x1="202.375" y1="251.152" x2="45.7558" y2="84.9812" gradientUnits="userSpaceOnUse">
<stop stop-color="#626262" stop-opacity="0"/>
<stop offset="0.39" stop-color="#666E83" stop-opacity="0.075"/>
<stop offset="0.78" stop-color="#6A7AA4" stop-opacity="0.15"/>
<stop offset="0.89" stop-color="#6A7AA3" stop-opacity="0.275"/>
<stop offset="1" stop-color="#6979A3" stop-opacity="0.4"/>
</linearGradient>
<linearGradient id="paint6_linear_29_6184" x1="283.718" y1="60.9042" x2="338" y2="232.292" gradientUnits="userSpaceOnUse">
<stop stop-color="#303745"/>
<stop offset="0.5" stop-color="#292F3B"/>
<stop offset="1" stop-color="#212630"/>
</linearGradient>
<linearGradient id="paint7_linear_29_6184" x1="390.148" y1="227.462" x2="233.529" y2="61.2917" gradientUnits="userSpaceOnUse">
<stop stop-color="#626262" stop-opacity="0"/>
<stop offset="0.39" stop-color="#666E83" stop-opacity="0.075"/>
<stop offset="0.78" stop-color="#6A7AA4" stop-opacity="0.15"/>
<stop offset="0.89" stop-color="#6A7AA3" stop-opacity="0.275"/>
<stop offset="1" stop-color="#6979A3" stop-opacity="0.4"/>
</linearGradient>
<clipPath id="clip0_29_6184">
<rect width="459.2" height="412" fill="white"/>
</clipPath>
</defs>
</svg>
