<svg width="248" height="163" viewBox="0 0 248 163" fill="none" xmlns="http://www.w3.org/2000/svg">
<mask id="mask0_29_8032" style="mask-type:luminance" maskUnits="userSpaceOnUse" x="0" y="18" width="199" height="145">
<path d="M0 18H198.015V162.704H0V18Z" fill="white"/>
</mask>
<g mask="url(#mask0_29_8032)">
<path d="M198.015 32.28V148.031C198.015 155.912 191.617 162.311 183.735 162.311H14.28C6.39884 162.311 0 155.912 0 148.031V32.28C0 24.3989 6.39884 18 14.28 18H183.735C191.617 18 198.015 24.3989 198.015 32.28Z" fill="url(#paint0_linear_29_8032)"/>
<path d="M198.015 32.28V148.031C198.015 155.912 191.617 162.311 183.735 162.311H14.28C6.39884 162.311 0 155.912 0 148.031V32.28C0 24.3989 6.39884 18 14.28 18H183.735C191.617 18 198.015 24.3989 198.015 32.28Z" stroke="url(#paint1_linear_29_8032)" stroke-width="0.692099"/>
<mask id="mask1_29_8032" style="mask-type:luminance" maskUnits="userSpaceOnUse" x="20" y="42" width="158" height="66">
<path d="M20.9453 42.2158H177.072V107.903H20.9453V42.2158Z" fill="white"/>
</mask>
<g mask="url(#mask1_29_8032)">
<path d="M24.4029 55.1846C22.4933 55.1846 20.9453 56.7335 20.9453 58.6432V107.921H32.7062V58.6432C32.7062 56.7335 31.1583 55.1846 29.2486 55.1846H24.4029Z" fill="#DDFDFF" fill-opacity="0.36"/>
<path d="M40.4889 42.2158C38.5792 42.2158 37.0312 43.7647 37.0312 45.6744V107.92H48.7922V45.6744C48.7922 43.7647 47.2442 42.2158 45.3345 42.2158H40.4889Z" fill="#DDFDFF" fill-opacity="0.36"/>
<path d="M56.5748 69.0166C54.6651 69.0166 53.1172 70.5655 53.1172 72.4752V107.921H64.8781V72.4752C64.8781 70.5655 63.3302 69.0166 61.4205 69.0166H56.5748Z" fill="#DDFDFF" fill-opacity="0.36"/>
<path d="M72.6529 86.3066C70.7433 86.3066 69.1953 87.8555 69.1953 89.7652V107.921H80.9562V89.7652C80.9562 87.8555 79.4083 86.3066 77.4986 86.3066H72.6529Z" fill="#DDFDFF" fill-opacity="0.36"/>
<path d="M88.7389 52.5908C86.8292 52.5908 85.2812 54.1388 85.2812 56.0485V107.921H97.0422V56.0485C97.0422 54.1388 95.4942 52.5908 93.5845 52.5908H88.7389Z" fill="#DDFDFF" fill-opacity="0.36"/>
<path d="M104.83 46.502C102.92 46.502 101.372 48.0508 101.372 49.9605L101.367 107.921H113.128L113.133 49.9605C113.133 48.0508 111.585 46.502 109.675 46.502H104.83Z" fill="#009EA8"/>
<path d="M120.911 52.6465C119.001 52.6465 117.453 54.1944 117.453 56.1041L117.453 107.92H129.214L129.214 56.1041C129.214 54.1944 127.666 52.6465 125.756 52.6465H120.911Z" fill="#DDFDFF" fill-opacity="0.36"/>
<path d="M136.989 42.2158C135.079 42.2158 133.531 43.7647 133.531 45.6744V107.92H145.292V45.6744C145.292 43.7647 143.744 42.2158 141.835 42.2158H136.989Z" fill="#DDFDFF" fill-opacity="0.36"/>
<path d="M153.075 42.2158C151.165 42.2158 149.617 43.7647 149.617 45.6744V107.92H161.378V45.6744C161.378 43.7647 159.83 42.2158 157.92 42.2158H153.075Z" fill="#DDFDFF" fill-opacity="0.36"/>
<path d="M169.161 52.5908C167.251 52.5908 165.703 54.1388 165.703 56.0485V107.921H177.464V56.0485C177.464 54.1388 175.916 52.5908 174.006 52.5908H169.161Z" fill="#DDFDFF" fill-opacity="0.36"/>
</g>
<path d="M180.877 107.013V129.406H13.8047V107.013H180.877Z" fill="url(#paint2_linear_29_8032)"/>
<mask id="mask2_29_8032" style="mask-type:luminance" maskUnits="userSpaceOnUse" x="20" y="118" width="158" height="21">
<path d="M20.9453 118.199H177.072V138.191H20.9453V118.199Z" fill="white"/>
</mask>
<g mask="url(#mask2_29_8032)">
<mask id="mask3_29_8032" style="mask-type:luminance" maskUnits="userSpaceOnUse" x="21" y="118" width="39" height="21">
<path d="M21.0781 118.111H59.1578V138.103H21.0781V118.111Z" fill="white"/>
</mask>
<g mask="url(#mask3_29_8032)">
<mask id="mask4_29_8032" style="mask-type:luminance" maskUnits="userSpaceOnUse" x="21" y="118" width="39" height="15">
<path d="M21.2109 118.111H59.2906V132.391H21.2109V118.111Z" fill="white"/>
</mask>
<g mask="url(#mask4_29_8032)">
<path d="M53.1328 118.051V126.583H54.4494V124.986L55.5585 123.816L57.4111 126.583H58.9714L56.4972 122.854L58.8248 120.342H57.3016L54.4494 123.39V118.051H53.1328Z" fill="#F6F6F9"/>
<path d="M46.634 123.438L49.6442 119.441V123.438H46.634ZM45.2812 123.463V124.608H49.6442V126.583H50.9732V124.608H52.2651V123.438H50.9732V118.051H49.3396L45.2812 123.463Z" fill="#F6F6F9"/>
<path d="M41.9818 122.707L38.7031 125.498V126.583H44.7483V125.401H40.629L42.8957 123.511C43.4974 123.008 43.9477 122.538 44.2485 122.103C44.5493 121.668 44.6997 121.163 44.6997 120.586C44.6997 119.789 44.436 119.153 43.9077 118.678C43.3793 118.203 42.6396 117.965 41.6886 117.965C41.0955 117.965 40.5757 118.087 40.1292 118.33C39.6827 118.574 39.3343 118.907 39.0868 119.33C38.8393 119.753 38.7145 120.232 38.7145 120.768V121H40.0683V120.842C40.0683 120.322 40.2158 119.906 40.5129 119.593C40.8099 119.28 41.2012 119.123 41.6886 119.123C42.1922 119.123 42.5911 119.257 42.8833 119.525C43.1756 119.794 43.3222 120.167 43.3222 120.647C43.3222 121.021 43.2108 121.365 42.9871 121.682C42.7634 121.999 42.4283 122.341 41.9818 122.707Z" fill="#F6F6F9"/>
<path d="M36.3239 125.23C36.1659 125.385 36.0859 125.584 36.0859 125.828C36.0859 126.072 36.1659 126.271 36.3239 126.425C36.482 126.579 36.6838 126.656 36.9275 126.656C37.1712 126.656 37.374 126.579 37.5368 126.425C37.6996 126.271 37.7805 126.072 37.7805 125.828C37.7805 125.584 37.6996 125.385 37.5368 125.23C37.374 125.076 37.1712 124.999 36.9275 124.999C36.6838 124.999 36.482 125.076 36.3239 125.23Z" fill="#F6F6F9"/>
<path d="M34.0817 121.195C33.6552 120.952 33.1735 120.83 32.6375 120.83C32.2634 120.83 31.9064 120.893 31.5646 121.019C31.2229 121.145 30.9306 121.342 30.6869 121.61L30.8459 119.233H34.9166V118.051H29.6026L29.3465 122.963L30.6507 122.987C30.7888 122.597 31.0239 122.325 31.3571 122.171C31.6903 122.017 32.0273 121.939 32.3691 121.939C32.8888 121.939 33.3058 122.105 33.619 122.439C33.9322 122.772 34.0874 123.199 34.0874 123.719C34.0874 124.101 34.0065 124.425 33.8437 124.694C33.6809 124.962 33.4677 125.165 33.204 125.303C32.9403 125.441 32.6575 125.511 32.3567 125.511C31.8531 125.511 31.4352 125.355 31.102 125.047C30.7688 124.739 30.5774 124.353 30.5289 123.889H29.1875C29.2199 124.402 29.3665 124.866 29.6264 125.285C29.8863 125.704 30.2499 126.035 30.7174 126.279C31.1848 126.523 31.7312 126.644 32.3567 126.644C32.926 126.644 33.4458 126.53 33.917 126.303C34.3882 126.075 34.7624 125.742 35.0384 125.303C35.3145 124.864 35.4526 124.337 35.4526 123.719C35.4526 123.158 35.3307 122.658 35.087 122.22C34.8433 121.781 34.5082 121.439 34.0817 121.195Z" fill="#F6F6F9"/>
<path d="M26.9002 122.061C26.5023 121.898 26.0263 121.769 25.4741 121.671C24.9296 121.574 24.5117 121.484 24.2194 121.403C23.9271 121.322 23.693 121.2 23.5178 121.037C23.3426 120.875 23.256 120.655 23.256 120.379C23.256 119.988 23.4035 119.687 23.7006 119.471C23.9976 119.256 24.3936 119.148 24.8896 119.148C25.4018 119.148 25.8235 119.282 26.1567 119.55C26.4899 119.819 26.6813 120.172 26.7298 120.611H28.1073C28.075 119.944 27.8332 119.378 27.3819 118.911C26.9307 118.443 26.3357 118.148 25.596 118.026V116.734H24.4136V117.99C23.6415 118.08 23.0228 118.349 22.5553 118.8C22.0879 119.251 21.8547 119.81 21.8547 120.477C21.8547 121.005 21.9784 121.432 22.2259 121.756C22.4735 122.081 22.7952 122.324 23.1894 122.482C23.5835 122.64 24.0566 122.768 24.6088 122.865C25.1533 122.962 25.576 123.057 25.8768 123.146C26.1777 123.236 26.4147 123.363 26.5899 123.53C26.765 123.696 26.8517 123.922 26.8517 124.207C26.8517 124.604 26.6908 124.915 26.37 125.139C26.0491 125.362 25.6284 125.474 25.1086 125.474C24.5155 125.474 24.0338 125.321 23.6644 125.017C23.295 124.712 23.0894 124.307 23.0485 123.804L21.6719 123.78C21.6881 124.527 21.9422 125.157 22.4335 125.669C22.9247 126.181 23.5844 126.493 24.4136 126.607V127.888H25.596V126.632C26.1158 126.575 26.5775 126.427 26.9802 126.187C27.3829 125.947 27.6942 125.642 27.9179 125.273C28.1416 124.903 28.254 124.491 28.254 124.036C28.254 123.516 28.1283 123.097 27.876 122.78C27.6237 122.463 27.2982 122.224 26.9002 122.061Z" fill="#F6F6F9"/>
</g>
<mask id="mask5_29_8032" style="mask-type:luminance" maskUnits="userSpaceOnUse" x="26" y="134" width="29" height="4">
<path d="M26.4453 134.12H54.0531V137.928H26.4453V134.12Z" fill="white"/>
</mask>
<g mask="url(#mask5_29_8032)">
<path d="M50.1797 134.103L50.8908 136.541H51.2526L51.8066 134.607L52.3636 136.541H52.7253L53.4393 134.103H53.1261L52.5521 136.15L51.9732 134.103H51.6667L51.0679 136.15L50.4967 134.103H50.1797Z" fill="#A3ADC2"/>
<path d="M48.1523 135.818C48.0799 135.674 48.0447 135.507 48.0447 135.322C48.0447 135.136 48.0799 134.97 48.1523 134.826C48.2247 134.681 48.3256 134.568 48.4541 134.485C48.5826 134.402 48.7302 134.361 48.8977 134.361C49.0653 134.361 49.2138 134.402 49.3423 134.485C49.4708 134.568 49.5708 134.681 49.6431 134.826C49.7155 134.97 49.7516 135.136 49.7516 135.322C49.7516 135.507 49.7155 135.674 49.6431 135.818C49.5708 135.963 49.4708 136.076 49.3423 136.159C49.2138 136.242 49.0653 136.283 48.8977 136.283C48.7302 136.283 48.5826 136.242 48.4541 136.159C48.3256 136.076 48.2247 135.963 48.1523 135.818ZM49.9135 135.959C50.0125 135.771 50.061 135.559 50.061 135.322C50.061 135.084 50.0125 134.873 49.9135 134.685C49.8145 134.496 49.6764 134.349 49.5003 134.242C49.3242 134.135 49.1233 134.082 48.8977 134.082C48.6721 134.082 48.4712 134.135 48.2951 134.242C48.119 134.349 47.9819 134.496 47.8829 134.685C47.7839 134.873 47.7344 135.084 47.7344 135.322C47.7344 135.559 47.7839 135.771 47.8829 135.959C47.9819 136.148 48.119 136.294 48.2951 136.401C48.4712 136.508 48.6721 136.562 48.8977 136.562C49.1233 136.562 49.3242 136.508 49.5003 136.401C49.6764 136.294 49.8145 136.148 49.9135 135.959Z" fill="#A3ADC2"/>
<path d="M46.3203 136.541H47.735V136.262H46.624V134.103H46.3203V136.541Z" fill="#A3ADC2"/>
<path d="M44.5 134.103V136.541H44.8037V135.474H45.8061V135.196H44.8037V134.381H46.0156V134.103H44.5Z" fill="#A3ADC2"/>
<path d="M42.3047 134.103V134.381H43.0958V136.541H43.3985V134.381H44.1887V134.103H42.3047Z" fill="#A3ADC2"/>
<path d="M40.4521 134.103H40.1484V135.499C40.1484 135.848 40.2265 136.111 40.3836 136.291C40.5407 136.471 40.771 136.562 41.0747 136.562C41.3784 136.562 41.6107 136.471 41.7697 136.291C41.9287 136.111 42.0086 135.848 42.0086 135.499V134.103H41.7059V135.516C41.7059 136.027 41.4946 136.283 41.0747 136.283C40.6587 136.283 40.4521 136.027 40.4521 135.516V134.103Z" fill="#A3ADC2"/>
<path d="M37.8945 135.818C37.8221 135.674 37.7869 135.507 37.7869 135.322C37.7869 135.136 37.8221 134.97 37.8945 134.826C37.9668 134.681 38.0677 134.568 38.1963 134.485C38.3248 134.402 38.4723 134.361 38.6399 134.361C38.8074 134.361 38.955 134.402 39.0835 134.485C39.212 134.568 39.313 134.681 39.3853 134.826C39.4577 134.97 39.4929 135.136 39.4929 135.322C39.4929 135.507 39.4577 135.674 39.3853 135.818C39.313 135.963 39.212 136.076 39.0835 136.159C38.955 136.242 38.8074 136.283 38.6399 136.283C38.4723 136.283 38.3248 136.242 38.1963 136.159C38.0677 136.076 37.9668 135.963 37.8945 135.818ZM39.6547 135.959C39.7537 135.771 39.8032 135.559 39.8032 135.322C39.8032 135.084 39.7537 134.873 39.6547 134.685C39.5557 134.496 39.4186 134.349 39.2425 134.242C39.0664 134.135 38.8655 134.082 38.6399 134.082C38.4143 134.082 38.2134 134.135 38.0373 134.242C37.8612 134.349 37.7241 134.496 37.6251 134.685C37.5261 134.873 37.4766 135.084 37.4766 135.322C37.4766 135.559 37.5261 135.771 37.6251 135.959C37.7241 136.148 37.8612 136.294 38.0373 136.401C38.2134 136.508 38.4143 136.562 38.6399 136.562C38.8655 136.562 39.0664 136.508 39.2425 136.401C39.4186 136.294 39.5557 136.148 39.6547 135.959Z" fill="#A3ADC2"/>
<path d="M34.9297 136.541H36.3434V136.262H35.2324V134.103H34.9297V136.541Z" fill="#A3ADC2"/>
<path d="M33.1226 135.607L33.5614 134.434L34.0041 135.607H33.1226ZM32.4609 136.541H32.7741L33.0321 135.882H34.0946L34.3525 136.541H34.6762L33.7499 134.103H33.391L32.4609 136.541Z" fill="#A3ADC2"/>
<path d="M30.8125 134.103V134.381H31.6027V136.541H31.9063V134.381H32.6965V134.103H30.8125Z" fill="#A3ADC2"/>
<path d="M28.871 135.818C28.7987 135.674 28.7635 135.507 28.7635 135.322C28.7635 135.136 28.7987 134.97 28.871 134.826C28.9434 134.681 29.0434 134.568 29.1719 134.485C29.3004 134.402 29.4489 134.361 29.6165 134.361C29.784 134.361 29.9316 134.402 30.0601 134.485C30.1886 134.568 30.2895 134.681 30.3619 134.826C30.4342 134.97 30.4694 135.136 30.4694 135.322C30.4694 135.507 30.4342 135.674 30.3619 135.818C30.2895 135.963 30.1886 136.076 30.0601 136.159C29.9316 136.242 29.784 136.283 29.6165 136.283C29.4489 136.283 29.3004 136.242 29.1719 136.159C29.0434 136.076 28.9434 135.963 28.871 135.818ZM30.6313 135.959C30.7303 135.771 30.7798 135.559 30.7798 135.322C30.7798 135.084 30.7303 134.873 30.6313 134.685C30.5323 134.496 30.3952 134.349 30.2191 134.242C30.043 134.135 29.8421 134.082 29.6165 134.082C29.3908 134.082 29.19 134.135 29.0138 134.242C28.8377 134.349 28.6997 134.496 28.6007 134.685C28.5017 134.873 28.4531 135.084 28.4531 135.322C28.4531 135.559 28.5017 135.771 28.6007 135.959C28.6997 136.148 28.8377 136.294 29.0138 136.401C29.19 136.508 29.3908 136.562 29.6165 136.562C29.8421 136.562 30.043 136.508 30.2191 136.401C30.3952 136.294 30.5323 136.148 30.6313 135.959Z" fill="#A3ADC2"/>
<path d="M26.5312 134.103V134.381H27.3224V136.541H27.6251V134.381H28.4162V134.103H26.5312Z" fill="#A3ADC2"/>
</g>
</g>
<path d="M69.6641 118.199V138.016" stroke="#404A5F" stroke-width="0.475996"/>
<mask id="mask6_29_8032" style="mask-type:luminance" maskUnits="userSpaceOnUse" x="80" y="118" width="39" height="21">
<path d="M80.1641 118.111H118.244V138.103H80.1641V118.111Z" fill="white"/>
</mask>
<g mask="url(#mask6_29_8032)">
<mask id="mask7_29_8032" style="mask-type:luminance" maskUnits="userSpaceOnUse" x="80" y="118" width="39" height="15">
<path d="M80.2969 118.111H118.377V132.391H80.2969V118.111Z" fill="white"/>
</mask>
<g mask="url(#mask7_29_8032)">
<path d="M112.219 118.051V126.583H113.535V124.986L114.644 123.816L116.497 126.583H118.057L115.583 122.854L117.911 120.342H116.388L113.535 123.39V118.051H112.219Z" fill="#F6F6F9"/>
<path d="M105.72 123.438L108.73 119.441V123.438H105.72ZM104.367 123.463V124.608H108.73V126.583H110.059V124.608H111.351V123.438H110.059V118.051H108.426L104.367 123.463Z" fill="#F6F6F9"/>
<path d="M101.068 122.707L97.7891 125.498V126.583H103.834V125.401H99.7149L101.982 123.511C102.583 123.008 103.034 122.538 103.334 122.103C103.635 121.668 103.786 121.163 103.786 120.586C103.786 119.789 103.522 119.153 102.994 118.678C102.465 118.203 101.726 117.965 100.775 117.965C100.181 117.965 99.6616 118.087 99.2151 118.33C98.7687 118.574 98.4202 118.907 98.1727 119.33C97.9252 119.753 97.8005 120.232 97.8005 120.768V121H99.1542V120.842C99.1542 120.322 99.3018 119.906 99.5988 119.593C99.8958 119.28 100.287 119.123 100.775 119.123C101.278 119.123 101.677 119.257 101.969 119.525C102.262 119.794 102.408 120.167 102.408 120.647C102.408 121.021 102.297 121.365 102.073 121.682C101.849 121.999 101.514 122.341 101.068 122.707Z" fill="#F6F6F9"/>
<path d="M95.4099 125.23C95.2518 125.385 95.1719 125.584 95.1719 125.828C95.1719 126.072 95.2518 126.271 95.4099 126.425C95.5679 126.579 95.7697 126.656 96.0134 126.656C96.2571 126.656 96.4599 126.579 96.6227 126.425C96.7855 126.271 96.8664 126.072 96.8664 125.828C96.8664 125.584 96.7855 125.385 96.6227 125.23C96.4599 125.076 96.2571 124.999 96.0134 124.999C95.7697 124.999 95.5679 125.076 95.4099 125.23Z" fill="#F6F6F9"/>
<path d="M93.1676 121.195C92.7411 120.952 92.2594 120.83 91.7235 120.83C91.3493 120.83 90.9923 120.893 90.6506 121.019C90.3088 121.145 90.0165 121.342 89.7728 121.61L89.9318 119.233H94.0025V118.051H88.6885L88.4324 122.963L89.7366 122.987C89.8747 122.597 90.1098 122.325 90.443 122.171C90.7762 122.017 91.1132 121.939 91.455 121.939C91.9748 121.939 92.3918 122.105 92.705 122.439C93.0182 122.772 93.1733 123.199 93.1733 123.719C93.1733 124.101 93.0924 124.425 92.9296 124.694C92.7668 124.962 92.5536 125.165 92.2899 125.303C92.0262 125.441 91.7435 125.511 91.4426 125.511C90.939 125.511 90.5211 125.355 90.1879 125.047C89.8547 124.739 89.6633 124.353 89.6148 123.889H88.2734C88.3058 124.402 88.4524 124.866 88.7123 125.285C88.9722 125.704 89.3359 126.035 89.8033 126.279C90.2707 126.523 90.8172 126.644 91.4426 126.644C92.0119 126.644 92.5317 126.53 93.0029 126.303C93.4742 126.075 93.8483 125.742 94.1244 125.303C94.4005 124.864 94.5385 124.337 94.5385 123.719C94.5385 123.158 94.4166 122.658 94.1729 122.22C93.9292 121.781 93.5941 121.439 93.1676 121.195Z" fill="#F6F6F9"/>
<path d="M85.9862 122.061C85.5882 121.898 85.1122 121.769 84.5601 121.671C84.0155 121.574 83.5976 121.484 83.3053 121.403C83.0131 121.322 82.7789 121.2 82.6037 121.037C82.4286 120.875 82.3419 120.655 82.3419 120.379C82.3419 119.988 82.4895 119.687 82.7865 119.471C83.0835 119.256 83.4796 119.148 83.9755 119.148C84.4877 119.148 84.9095 119.282 85.2426 119.55C85.5758 119.819 85.7672 120.172 85.8157 120.611H87.1933C87.1609 119.944 86.9191 119.378 86.4679 118.911C86.0166 118.443 85.4216 118.148 84.6819 118.026V116.734H83.4996V117.99C82.7275 118.08 82.1087 118.349 81.6413 118.8C81.1738 119.251 80.9406 119.81 80.9406 120.477C80.9406 121.005 81.0644 121.432 81.3119 121.756C81.5594 122.081 81.8812 122.324 82.2753 122.482C82.6694 122.64 83.1426 122.768 83.6947 122.865C84.2392 122.962 84.6619 123.057 84.9628 123.146C85.2636 123.236 85.5006 123.363 85.6758 123.53C85.851 123.696 85.9376 123.922 85.9376 124.207C85.9376 124.604 85.7767 124.915 85.4559 125.139C85.1351 125.362 84.7143 125.474 84.1945 125.474C83.6014 125.474 83.1197 125.321 82.7503 125.017C82.381 124.712 82.1753 124.307 82.1344 123.804L80.7578 123.78C80.774 124.527 81.0282 125.157 81.5194 125.669C82.0106 126.181 82.6704 126.493 83.4996 126.607V127.888H84.6819V126.632C85.2017 126.575 85.6634 126.427 86.0661 126.187C86.4688 125.947 86.7801 125.642 87.0038 125.273C87.2276 124.903 87.3399 124.491 87.3399 124.036C87.3399 123.516 87.2142 123.097 86.9619 122.78C86.7097 122.463 86.3841 122.224 85.9862 122.061Z" fill="#F6F6F9"/>
</g>
<mask id="mask8_29_8032" style="mask-type:luminance" maskUnits="userSpaceOnUse" x="87" y="134" width="25" height="4">
<path d="M87.4375 134.12H111.237V137.928H87.4375V134.12Z" fill="white"/>
</mask>
<g mask="url(#mask8_29_8032)">
<path d="M107.352 134.103L108.063 136.541H108.424L108.979 134.607L109.535 136.541H109.897L110.611 134.103H110.298L109.724 136.15L109.145 134.103H108.839L108.24 136.15L107.669 134.103H107.352Z" fill="#A3ADC2"/>
<path d="M105.324 135.818C105.252 135.674 105.216 135.507 105.216 135.322C105.216 135.136 105.252 134.97 105.324 134.826C105.397 134.681 105.496 134.568 105.625 134.485C105.754 134.402 105.901 134.361 106.069 134.361C106.236 134.361 106.385 134.402 106.513 134.485C106.642 134.568 106.742 134.681 106.814 134.826C106.886 134.97 106.923 135.136 106.923 135.322C106.923 135.507 106.886 135.674 106.814 135.818C106.742 135.963 106.642 136.076 106.513 136.159C106.385 136.242 106.236 136.283 106.069 136.283C105.901 136.283 105.754 136.242 105.625 136.159C105.496 136.076 105.397 135.963 105.324 135.818ZM107.084 135.959C107.183 135.771 107.232 135.559 107.232 135.322C107.232 135.084 107.183 134.873 107.084 134.685C106.985 134.496 106.847 134.349 106.671 134.242C106.495 134.135 106.294 134.082 106.069 134.082C105.843 134.082 105.642 134.135 105.466 134.242C105.29 134.349 105.153 134.496 105.054 134.685C104.955 134.873 104.906 135.084 104.906 135.322C104.906 135.559 104.955 135.771 105.054 135.959C105.153 136.148 105.29 136.294 105.466 136.401C105.642 136.508 105.843 136.562 106.069 136.562C106.294 136.562 106.495 136.508 106.671 136.401C106.847 136.294 106.985 136.148 107.084 135.959Z" fill="#A3ADC2"/>
<path d="M103.492 136.541H104.907V136.262H103.796V134.103H103.492V136.541Z" fill="#A3ADC2"/>
<path d="M101.672 134.103V136.541H101.975V135.474H102.977V135.196H101.975V134.381H103.186V134.103H101.672Z" fill="#A3ADC2"/>
<path d="M99.3281 136.541H99.6242V134.659L100.934 136.541H101.212V134.103H100.916V135.983L99.6071 134.103H99.3281V136.541Z" fill="#A3ADC2"/>
<path d="M98.5547 134.103V136.541H98.8584V134.103H98.5547Z" fill="#A3ADC2"/>
<path d="M95.9219 136.541H97.3356V136.262H96.2246V134.103H95.9219V136.541Z" fill="#A3ADC2"/>
<path d="M94.1148 135.607L94.5536 134.434L94.9963 135.607H94.1148ZM93.4531 136.541H93.7663L94.0243 135.882H95.0867L95.3447 136.541H95.6684L94.7421 134.103H94.3832L93.4531 136.541Z" fill="#A3ADC2"/>
<path d="M91.8047 134.103V134.381H92.5948V136.541H92.8985V134.381H93.6887V134.103H91.8047Z" fill="#A3ADC2"/>
<path d="M89.8632 135.818C89.7909 135.674 89.7557 135.507 89.7557 135.322C89.7557 135.136 89.7909 134.97 89.8632 134.826C89.9356 134.681 90.0355 134.568 90.1641 134.485C90.2926 134.402 90.4411 134.361 90.6086 134.361C90.7762 134.361 90.9238 134.402 91.0523 134.485C91.1808 134.568 91.2817 134.681 91.3541 134.826C91.4264 134.97 91.4616 135.136 91.4616 135.322C91.4616 135.507 91.4264 135.674 91.3541 135.818C91.2817 135.963 91.1808 136.076 91.0523 136.159C90.9238 136.242 90.7762 136.283 90.6086 136.283C90.4411 136.283 90.2926 136.242 90.1641 136.159C90.0355 136.076 89.9356 135.963 89.8632 135.818ZM91.6235 135.959C91.7225 135.771 91.772 135.559 91.772 135.322C91.772 135.084 91.7225 134.873 91.6235 134.685C91.5245 134.496 91.3874 134.349 91.2113 134.242C91.0351 134.135 90.8343 134.082 90.6086 134.082C90.383 134.082 90.1822 134.135 90.006 134.242C89.8299 134.349 89.6919 134.496 89.5929 134.685C89.4939 134.873 89.4453 135.084 89.4453 135.322C89.4453 135.559 89.4939 135.771 89.5929 135.959C89.6919 136.148 89.8299 136.294 90.006 136.401C90.1822 136.508 90.383 136.562 90.6086 136.562C90.8343 136.562 91.0351 136.508 91.2113 136.401C91.3874 136.294 91.5245 136.148 91.6235 135.959Z" fill="#A3ADC2"/>
<path d="M87.5234 134.103V134.381H88.3145V136.541H88.6173V134.381H89.4084V134.103H87.5234Z" fill="#A3ADC2"/>
</g>
</g>
<path d="M128.75 118.199V138.016" stroke="#404A5F" stroke-width="0.475996"/>
<mask id="mask9_29_8032" style="mask-type:luminance" maskUnits="userSpaceOnUse" x="139" y="118" width="39" height="21">
<path d="M139.258 118.111H177.338V138.103H139.258V118.111Z" fill="white"/>
</mask>
<g mask="url(#mask9_29_8032)">
<mask id="mask10_29_8032" style="mask-type:luminance" maskUnits="userSpaceOnUse" x="139" y="118" width="39" height="15">
<path d="M139.391 118.111H177.47V132.391H139.391V118.111Z" fill="white"/>
</mask>
<g mask="url(#mask10_29_8032)">
<path d="M171.312 118.051V126.583H172.629V124.986L173.738 123.816L175.591 126.583H177.151L174.677 122.854L177.004 120.342H175.481L172.629 123.39V118.051H171.312Z" fill="#F6F6F9"/>
<path d="M164.814 123.438L167.824 119.441V123.438H164.814ZM163.461 123.463V124.608H167.824V126.583H169.153V124.608H170.445V123.438H169.153V118.051H167.519L163.461 123.463Z" fill="#F6F6F9"/>
<path d="M160.161 122.707L156.883 125.498V126.583H162.928V125.401H158.809L161.075 123.511C161.677 123.008 162.127 122.538 162.428 122.103C162.729 121.668 162.879 121.163 162.879 120.586C162.879 119.789 162.616 119.153 162.087 118.678C161.559 118.203 160.819 117.965 159.868 117.965C159.275 117.965 158.755 118.087 158.309 118.33C157.862 118.574 157.514 118.907 157.266 119.33C157.019 119.753 156.894 120.232 156.894 120.768V121H158.248V120.842C158.248 120.322 158.396 119.906 158.693 119.593C158.99 119.28 159.381 119.123 159.868 119.123C160.372 119.123 160.771 119.257 161.063 119.525C161.355 119.794 161.502 120.167 161.502 120.647C161.502 121.021 161.39 121.365 161.167 121.682C160.943 121.999 160.608 122.341 160.161 122.707Z" fill="#F6F6F9"/>
<path d="M154.504 125.23C154.346 125.385 154.266 125.584 154.266 125.828C154.266 126.072 154.346 126.271 154.504 126.425C154.662 126.579 154.863 126.656 155.107 126.656C155.351 126.656 155.554 126.579 155.716 126.425C155.879 126.271 155.96 126.072 155.96 125.828C155.96 125.584 155.879 125.385 155.716 125.23C155.554 125.076 155.351 124.999 155.107 124.999C154.863 124.999 154.662 125.076 154.504 125.23Z" fill="#F6F6F9"/>
<path d="M152.261 121.195C151.835 120.952 151.353 120.83 150.817 120.83C150.443 120.83 150.086 120.893 149.744 121.019C149.403 121.145 149.11 121.342 148.867 121.61L149.026 119.233H153.096V118.051H147.782L147.526 122.963L148.83 122.987C148.968 122.597 149.204 122.325 149.537 122.171C149.87 122.017 150.207 121.939 150.549 121.939C151.069 121.939 151.486 122.105 151.799 122.439C152.112 122.772 152.267 123.199 152.267 123.719C152.267 124.101 152.186 124.425 152.023 124.694C151.861 124.962 151.647 125.165 151.384 125.303C151.12 125.441 150.837 125.511 150.536 125.511C150.033 125.511 149.615 125.355 149.282 125.047C148.948 124.739 148.757 124.353 148.709 123.889H147.367C147.4 124.402 147.546 124.866 147.806 125.285C148.066 125.704 148.43 126.035 148.897 126.279C149.364 126.523 149.911 126.644 150.536 126.644C151.106 126.644 151.625 126.53 152.097 126.303C152.568 126.075 152.942 125.742 153.218 125.303C153.494 124.864 153.632 124.337 153.632 123.719C153.632 123.158 153.51 122.658 153.267 122.22C153.023 121.781 152.688 121.439 152.261 121.195Z" fill="#F6F6F9"/>
<path d="M145.08 122.061C144.682 121.898 144.206 121.769 143.654 121.671C143.109 121.574 142.691 121.484 142.399 121.403C142.107 121.322 141.873 121.2 141.697 121.037C141.522 120.875 141.436 120.655 141.436 120.379C141.436 119.988 141.583 119.687 141.88 119.471C142.177 119.256 142.573 119.148 143.069 119.148C143.581 119.148 144.003 119.282 144.336 119.55C144.67 119.819 144.861 120.172 144.909 120.611H146.287C146.255 119.944 146.013 119.378 145.562 118.911C145.11 118.443 144.515 118.148 143.776 118.026V116.734H142.593V117.99C141.821 118.08 141.202 118.349 140.735 118.8C140.268 119.251 140.034 119.81 140.034 120.477C140.034 121.005 140.158 121.432 140.406 121.756C140.653 122.081 140.975 122.324 141.369 122.482C141.763 122.64 142.236 122.768 142.788 122.865C143.333 122.962 143.756 123.057 144.057 123.146C144.357 123.236 144.594 123.363 144.77 123.53C144.945 123.696 145.031 123.922 145.031 124.207C145.031 124.604 144.87 124.915 144.55 125.139C144.229 125.362 143.808 125.474 143.288 125.474C142.695 125.474 142.213 125.321 141.844 125.017C141.475 124.712 141.269 124.307 141.228 123.804L139.852 123.78C139.868 124.527 140.122 125.157 140.613 125.669C141.104 126.181 141.764 126.493 142.593 126.607V127.888H143.776V126.632C144.295 126.575 144.757 126.427 145.16 126.187C145.563 125.947 145.874 125.642 146.098 125.273C146.321 124.903 146.434 124.491 146.434 124.036C146.434 123.516 146.308 123.097 146.056 122.78C145.803 122.463 145.478 122.224 145.08 122.061Z" fill="#F6F6F9"/>
</g>
<mask id="mask11_29_8032" style="mask-type:luminance" maskUnits="userSpaceOnUse" x="150" y="134" width="17" height="4">
<path d="M150.812 134.12H166.044V137.928H150.812V134.12Z" fill="white"/>
</mask>
<g mask="url(#mask11_29_8032)">
<path d="M163.43 134.103V136.541H165.028V136.262H163.732V135.44H164.774V135.161H163.732V134.381H164.982V134.103H163.43Z" fill="#A3ADC2"/>
<path d="M160.5 134.103V136.541H160.796V134.618L161.603 136.541H161.872L162.68 134.618V136.541H162.976V134.103H162.6L161.746 136.126L160.883 134.103H160.5Z" fill="#A3ADC2"/>
<path d="M159.727 134.103V136.541H160.029V134.103H159.727Z" fill="#A3ADC2"/>
<path d="M157.531 134.103V134.381H158.321V136.541H158.624V134.381H159.415V134.103H157.531Z" fill="#A3ADC2"/>
<path d="M155.055 136.541H156.468V136.262H155.357V134.103H155.055V136.541Z" fill="#A3ADC2"/>
<path d="M153.328 136.541H154.742V136.262H153.631V134.103H153.328V136.541Z" fill="#A3ADC2"/>
<path d="M151.513 135.607L151.952 134.434L152.395 135.607H151.513ZM150.852 136.541H151.165L151.423 135.882H152.485L152.743 136.541H153.067L152.141 134.103H151.782L150.852 136.541Z" fill="#A3ADC2"/>
</g>
</g>
</g>
</g>
<mask id="mask12_29_8032" style="mask-type:luminance" maskUnits="userSpaceOnUse" x="59" y="0" width="189" height="125">
<path d="M59 0H247.495V124.711H59V0Z" fill="white"/>
</mask>
<g mask="url(#mask12_29_8032)">
<path d="M247.495 14.2799V110.431C247.495 118.312 241.096 124.711 233.215 124.711H73.2799C65.3988 124.711 59 118.312 59 110.431V14.2799C59 6.39882 65.3988 0 73.2799 0H233.215C241.096 0 247.495 6.39882 247.495 14.2799Z" fill="url(#paint3_linear_29_8032)"/>
<path d="M247.495 14.2799V110.431C247.495 118.312 241.096 124.711 233.215 124.711H73.2799C65.3988 124.711 59 118.312 59 110.431V14.2799C59 6.39882 65.3988 0 73.2799 0H233.215C241.096 0 247.495 6.39882 247.495 14.2799Z" stroke="url(#paint4_linear_29_8032)" stroke-width="0.692099"/>
<mask id="mask13_29_8032" style="mask-type:luminance" maskUnits="userSpaceOnUse" x="71" y="12" width="156" height="28">
<path d="M71.4766 12.0498H226.651V39.6576H71.4766V12.0498Z" fill="white"/>
</mask>
<g mask="url(#mask13_29_8032)">
<mask id="mask14_29_8032" style="mask-type:luminance" maskUnits="userSpaceOnUse" x="71" y="12" width="156" height="28">
<path d="M71.5703 12.0498H226.745V39.6576H71.5703V12.0498Z" fill="white"/>
</mask>
<g mask="url(#mask14_29_8032)">
<path d="M79.6331 17.6384C79.0619 17.4099 78.3955 17.2291 77.6053 17.0863C76.8437 16.953 76.244 16.8292 75.8346 16.715C75.4157 16.6007 75.0825 16.4199 74.8445 16.1914C74.597 15.9629 74.4733 15.6487 74.4733 15.2584C74.4733 14.7063 74.6827 14.2779 75.1016 13.9732C75.5205 13.6686 76.0821 13.5163 76.7771 13.5163C77.5101 13.5163 78.1004 13.7067 78.5764 14.0875C79.0523 14.4683 79.3189 14.9728 79.3855 15.5916H81.3371C81.2895 14.6492 80.9468 13.84 80.309 13.1831C79.6711 12.5167 78.8334 12.1073 77.7862 11.9265V10.0986H76.1107V11.8789C75.0159 12.0026 74.1401 12.3834 73.4737 13.0308C72.8168 13.6686 72.4836 14.4588 72.4836 15.4012C72.4836 16.1438 72.655 16.7531 73.0072 17.21C73.3594 17.6765 73.8164 18.0097 74.3781 18.2382C74.9302 18.4666 75.6061 18.6475 76.3868 18.7808C77.1579 18.9236 77.7576 19.0474 78.1765 19.1806C78.6049 19.3044 78.9381 19.4853 79.1856 19.7233C79.4331 19.9613 79.5569 20.2754 79.5569 20.6848C79.5569 21.2465 79.3284 21.6844 78.881 21.9985C78.424 22.3127 77.8243 22.4745 77.0912 22.4745C76.2535 22.4745 75.5681 22.2556 75.0445 21.8272C74.5209 21.3988 74.2353 20.8276 74.1781 20.1136L72.2266 20.0755C72.2456 21.1322 72.6074 22.0271 73.3023 22.7506C73.9973 23.4741 74.9302 23.9216 76.1107 24.0834V25.8922H77.7862V24.112C78.5192 24.0358 79.1761 23.8264 79.7378 23.4836C80.309 23.1409 80.7564 22.7125 81.0706 22.1889C81.3847 21.6653 81.5466 21.0846 81.5466 20.4373C81.5466 19.7042 81.3657 19.114 81.0135 18.657C80.6517 18.2096 80.1947 17.8764 79.6331 17.6384Z" fill="#F6F6F9"/>
<path d="M89.7977 16.4202C89.1884 16.0775 88.5125 15.8966 87.7509 15.8966C87.2178 15.8966 86.7132 15.9918 86.2277 16.1631C85.7422 16.344 85.3328 16.6296 84.9901 17.0009L85.2091 13.6403H90.9782V11.9648H83.4479L83.0861 18.9239L84.933 18.9525C85.1329 18.4003 85.4661 18.0195 85.9326 17.8006C86.4086 17.5816 86.8846 17.4674 87.3701 17.4674C88.1031 17.4674 88.6934 17.7054 89.1408 18.1814C89.5787 18.6478 89.7977 19.2571 89.7977 19.9901C89.7977 20.5328 89.6835 20.9897 89.455 21.3705C89.2265 21.7513 88.9219 22.0369 88.5506 22.2368C88.1793 22.4272 87.7795 22.5224 87.3511 22.5224C86.6371 22.5224 86.0468 22.313 85.5708 21.8751C85.1044 21.4372 84.8283 20.885 84.7617 20.2281H82.8672C82.9148 20.9612 83.1147 21.618 83.486 22.2083C83.8573 22.7985 84.3713 23.265 85.0282 23.6172C85.6946 23.9599 86.4657 24.1313 87.3511 24.1313C88.1603 24.1313 88.8933 23.9695 89.5597 23.6458C90.2261 23.3221 90.7592 22.8556 91.1495 22.2368C91.5398 21.6085 91.7398 20.866 91.7398 19.9901C91.7398 19.2 91.5589 18.486 91.2162 17.8672C90.8734 17.2484 90.3974 16.7629 89.7977 16.4202Z" fill="#F6F6F9"/>
<path d="M93.3254 22.132C93.1064 22.351 92.9922 22.6271 92.9922 22.9793C92.9922 23.322 93.1064 23.5981 93.3254 23.8171C93.5539 24.036 93.8395 24.1502 94.1822 24.1502C94.5249 24.1502 94.8105 24.036 95.0485 23.8171C95.277 23.5981 95.3912 23.322 95.3912 22.9793C95.3912 22.6271 95.277 22.351 95.0485 22.132C94.8105 21.9131 94.5249 21.7988 94.1822 21.7988C93.8395 21.7988 93.5539 21.9131 93.3254 22.132Z" fill="#F6F6F9"/>
<path d="M101.333 18.5619L96.6875 22.5127V24.0454H105.255V22.3699H99.4197L102.628 19.6948C103.475 18.9808 104.123 18.3144 104.541 17.7051C104.97 17.0863 105.179 16.3723 105.179 15.5536C105.179 14.4302 104.808 13.5258 104.056 12.8499C103.313 12.1835 102.266 11.8408 100.924 11.8408C100.077 11.8408 99.3436 12.0217 98.7152 12.3644C98.0774 12.7071 97.5824 13.1831 97.2397 13.7734C96.8874 14.3731 96.7065 15.0586 96.7065 15.8106V16.1438H98.62V15.9153C98.62 15.1823 98.839 14.5921 99.2579 14.1446C99.6768 13.7067 100.229 13.4878 100.924 13.4878C101.628 13.4878 102.2 13.6782 102.609 14.0494C103.028 14.4302 103.228 14.9634 103.228 15.6393C103.228 16.1724 103.075 16.6579 102.761 17.1053C102.438 17.5528 101.971 18.0383 101.333 18.5619Z" fill="#F6F6F9"/>
<path d="M108.117 19.5903L112.382 13.9355V19.5903H108.117ZM106.203 19.6284V21.2468H112.382V24.0456H114.257V21.2468H116.094V19.5903H114.257V11.9648H111.953L106.203 19.6284Z" fill="#F6F6F9"/>
<path d="M117.312 11.9648V24.0456H119.178V21.7894L120.749 20.1329L123.367 24.0456H125.576L122.072 18.7621L125.376 15.2111H123.215L119.178 19.5237V11.9648H117.312Z" fill="#F6F6F9"/>
<path d="M71.6562 35.834V36.1101H72.4464V38.2711H72.751V36.1101H73.5412V35.834H71.6562Z" fill="#A3ADC2"/>
<path d="M74.1923 37.5471C74.1257 37.4043 74.0876 37.2329 74.0876 37.052C74.0876 36.8616 74.1257 36.6998 74.1923 36.557C74.2685 36.4142 74.3637 36.3 74.497 36.2143C74.6207 36.1286 74.773 36.0905 74.9444 36.0905C75.1062 36.0905 75.2585 36.1286 75.3823 36.2143C75.5156 36.3 75.6108 36.4142 75.6869 36.557C75.7536 36.6998 75.7917 36.8616 75.7917 37.052C75.7917 37.2329 75.7536 37.4043 75.6869 37.5471C75.6108 37.6899 75.5156 37.8041 75.3823 37.8898C75.2585 37.9755 75.1062 38.0136 74.9444 38.0136C74.773 38.0136 74.6207 37.9755 74.497 37.8898C74.3637 37.8041 74.2685 37.6899 74.1923 37.5471ZM75.9535 37.6899C76.0582 37.4995 76.1058 37.29 76.1058 37.052C76.1058 36.814 76.0582 36.6046 75.9535 36.4142C75.8583 36.2238 75.7155 36.081 75.5441 35.9763C75.3633 35.8621 75.1633 35.8145 74.9444 35.8145C74.7159 35.8145 74.516 35.8621 74.3351 35.9763C74.1638 36.081 74.021 36.2238 73.9258 36.4142C73.8306 36.6046 73.7734 36.814 73.7734 37.052C73.7734 37.29 73.8306 37.4995 73.9258 37.6899C74.021 37.8803 74.1638 38.0231 74.3351 38.1278C74.516 38.242 74.7159 38.2896 74.9444 38.2896C75.1633 38.2896 75.3633 38.242 75.5441 38.1278C75.7155 38.0231 75.8583 37.8803 75.9535 37.6899Z" fill="#A3ADC2"/>
<path d="M76.3203 35.834V36.1101H77.1105V38.2711H77.4151V36.1101H78.2053V35.834H76.3203Z" fill="#A3ADC2"/>
<path d="M78.9945 37.3381L79.4324 36.1672L79.8704 37.3381H78.9945ZM78.3281 38.2711H78.6423L78.8993 37.6142H79.9656L80.2226 38.2711H80.5463L79.6133 35.834H79.2611L78.3281 38.2711Z" fill="#A3ADC2"/>
<path d="M80.8438 38.2711H82.2527V37.995H81.1484V35.834H80.8438V38.2711Z" fill="#A3ADC2"/>
<path d="M72.1298 39.5471C72.0632 39.4043 72.0251 39.2329 72.0251 39.052C72.0251 38.8616 72.0632 38.6998 72.1298 38.557C72.206 38.4142 72.3012 38.3 72.4345 38.2143C72.5582 38.1286 72.7105 38.0905 72.8819 38.0905C73.0437 38.0905 73.196 38.1286 73.3198 38.2143C73.4531 38.3 73.5483 38.4142 73.6244 38.557C73.6911 38.6998 73.7292 38.8616 73.7292 39.052C73.7292 39.2329 73.6911 39.4043 73.6244 39.5471C73.5483 39.6899 73.4531 39.8041 73.3198 39.8898C73.196 39.9755 73.0437 40.0136 72.8819 40.0136C72.7105 40.0136 72.5582 39.9755 72.4345 39.8898C72.3012 39.8041 72.206 39.6899 72.1298 39.5471ZM73.891 39.6899C73.9957 39.4995 74.0433 39.29 74.0433 39.052C74.0433 38.814 73.9957 38.6046 73.891 38.4142C73.7958 38.2238 73.653 38.081 73.4816 37.9763C73.3008 37.8621 73.1008 37.8145 72.8819 37.8145C72.6534 37.8145 72.4535 37.8621 72.2726 37.9763C72.1013 38.081 71.9585 38.2238 71.8633 38.4142C71.7681 38.6046 71.7109 38.814 71.7109 39.052C71.7109 39.29 71.7681 39.4995 71.8633 39.6899C71.9585 39.8803 72.1013 40.0231 72.2726 40.1278C72.4535 40.242 72.6534 40.2896 72.8819 40.2896C73.1008 40.2896 73.3008 40.242 73.4816 40.1278C73.653 40.0231 73.7958 39.8803 73.891 39.6899Z" fill="#A3ADC2"/>
<path d="M74.6953 37.834H74.3906V39.2334C74.3906 39.5761 74.4763 39.8427 74.6286 40.0236C74.7905 40.2044 75.0189 40.2901 75.3236 40.2901C75.6282 40.2901 75.8567 40.2044 76.0185 40.0236C76.1709 39.8427 76.2565 39.5761 76.2565 39.2334V37.834H75.9519V39.2429C75.9519 39.757 75.7425 40.014 75.3236 40.014C74.9047 40.014 74.6953 39.757 74.6953 39.2429V37.834Z" fill="#A3ADC2"/>
<path d="M76.5469 37.834V38.1101H77.337V40.2711H77.6417V38.1101H78.4318V37.834H76.5469Z" fill="#A3ADC2"/>
<path d="M78.7578 37.834V40.2711H79.0625V39.2049H80.062V38.9288H79.0625V38.1101H80.2715V37.834H78.7578Z" fill="#A3ADC2"/>
<path d="M80.5859 40.2711H81.9949V39.995H80.8906V37.834H80.5859V40.2711Z" fill="#A3ADC2"/>
<path d="M82.6376 39.5471C82.571 39.4043 82.5329 39.2329 82.5329 39.052C82.5329 38.8616 82.571 38.6998 82.6376 38.557C82.7138 38.4142 82.809 38.3 82.9423 38.2143C83.066 38.1286 83.2183 38.0905 83.3897 38.0905C83.5515 38.0905 83.7039 38.1286 83.8276 38.2143C83.9609 38.3 84.0561 38.4142 84.1323 38.557C84.1989 38.6998 84.237 38.8616 84.237 39.052C84.237 39.2329 84.1989 39.4043 84.1323 39.5471C84.0561 39.6899 83.9609 39.8041 83.8276 39.8898C83.7039 39.9755 83.5515 40.0136 83.3897 40.0136C83.2183 40.0136 83.066 39.9755 82.9423 39.8898C82.809 39.8041 82.7138 39.6899 82.6376 39.5471ZM84.3988 39.6899C84.5035 39.4995 84.5511 39.29 84.5511 39.052C84.5511 38.814 84.5035 38.6046 84.3988 38.4142C84.3036 38.2238 84.1608 38.081 83.9895 37.9763C83.8086 37.8621 83.6087 37.8145 83.3897 37.8145C83.1612 37.8145 82.9613 37.8621 82.7804 37.9763C82.6091 38.081 82.4663 38.2238 82.3711 38.4142C82.2759 38.6046 82.2188 38.814 82.2188 39.052C82.2188 39.29 82.2759 39.4995 82.3711 39.6899C82.4663 39.8803 82.6091 40.0231 82.7804 40.1278C82.9613 40.242 83.1612 40.2896 83.3897 40.2896C83.6087 40.2896 83.8086 40.242 83.9895 40.1278C84.1608 40.0231 84.3036 39.8803 84.3988 39.6899Z" fill="#A3ADC2"/>
<path d="M84.7656 37.834L85.4796 40.2711H85.8414L86.3935 38.3385L86.9552 40.2711H87.317L88.031 37.834H87.7168L87.1361 39.8808L86.5649 37.834H86.2507L85.6605 39.8808L85.0893 37.834H84.7656Z" fill="#A3ADC2"/>
</g>
</g>
<mask id="mask15_29_8032" style="mask-type:luminance" maskUnits="userSpaceOnUse" x="71" y="42" width="156" height="71">
<path d="M71.4766 42.3643H226.651V112.812H71.4766V42.3643Z" fill="white"/>
</mask>
<g mask="url(#mask15_29_8032)">
<mask id="mask16_29_8032" style="mask-type:luminance" maskUnits="userSpaceOnUse" x="83" y="107" width="143" height="6">
<path d="M83.7891 107.885H225.636V112.645H83.7891V107.885Z" fill="white"/>
</mask>
<g mask="url(#mask16_29_8032)">
<path d="M84.3312 109.574L83.9219 109.565C83.9314 109.736 83.9695 109.889 84.0552 110.012C84.1408 110.146 84.2646 110.241 84.4169 110.317C84.5692 110.384 84.7406 110.422 84.9405 110.422C85.1214 110.422 85.2832 110.393 85.426 110.326C85.5688 110.26 85.6831 110.165 85.7592 110.05C85.8449 109.927 85.883 109.793 85.883 109.641C85.883 109.489 85.8449 109.365 85.7687 109.27C85.6926 109.175 85.5974 109.108 85.4831 109.06C85.3594 109.013 85.2166 108.975 85.0547 108.946C84.8929 108.918 84.7691 108.889 84.6835 108.86C84.5978 108.841 84.5312 108.803 84.474 108.756C84.4264 108.708 84.3979 108.641 84.3979 108.556C84.3979 108.442 84.4455 108.356 84.5312 108.289C84.6168 108.223 84.7311 108.194 84.8834 108.194C85.0357 108.194 85.1595 108.232 85.2642 108.308C85.3594 108.394 85.4165 108.499 85.426 108.632H85.8354C85.8354 108.48 85.7878 108.337 85.7021 108.223C85.6259 108.099 85.5117 108.013 85.3689 107.947C85.2261 107.88 85.0643 107.842 84.8834 107.842C84.7025 107.842 84.5502 107.87 84.4169 107.937C84.2741 107.994 84.1694 108.089 84.0932 108.204C84.0171 108.318 83.979 108.442 83.979 108.584C83.979 108.746 84.0171 108.87 84.0932 108.965C84.1694 109.06 84.2646 109.137 84.3788 109.184C84.4931 109.232 84.6359 109.27 84.7977 109.298C84.9595 109.327 85.0833 109.355 85.1785 109.384C85.2642 109.403 85.3403 109.441 85.3879 109.498C85.4355 109.546 85.4641 109.613 85.4641 109.698C85.4641 109.812 85.4165 109.908 85.3213 109.974C85.2261 110.041 85.1023 110.069 84.95 110.069C84.7691 110.069 84.6263 110.031 84.5216 109.936C84.4074 109.851 84.3503 109.727 84.3312 109.574Z" fill="#525F7A"/>
<path d="M86.5986 107.87H86.1797V109.317C86.1797 109.679 86.2654 109.955 86.4272 110.145C86.5986 110.326 86.8461 110.421 87.1698 110.421C87.503 110.421 87.7505 110.326 87.9218 110.145C88.0932 109.955 88.1789 109.679 88.1789 109.317V107.87H87.76V109.336C87.76 109.574 87.7124 109.755 87.6172 109.879C87.522 109.993 87.3792 110.05 87.1698 110.05C86.9794 110.05 86.827 109.993 86.7318 109.879C86.6462 109.755 86.5986 109.574 86.5986 109.336V107.87Z" fill="#525F7A"/>
<path d="M88.6094 110.402H89.0187V108.603L90.2563 110.402H90.6371V107.87H90.2278V109.66L88.9902 107.87H88.6094V110.402Z" fill="#525F7A"/>
<path d="M106.719 107.87V110.402H107.128V108.537L107.89 110.402H108.232L108.994 108.537V110.402H109.403V107.87H108.87L108.071 109.86L107.261 107.87H106.719Z" fill="#525F7A"/>
<path d="M110.275 109.613C110.209 109.47 110.171 109.308 110.171 109.137C110.171 108.956 110.209 108.803 110.275 108.661C110.342 108.518 110.437 108.403 110.561 108.327C110.675 108.251 110.818 108.213 110.97 108.213C111.132 108.213 111.275 108.251 111.389 108.327C111.513 108.403 111.608 108.518 111.675 108.661C111.741 108.803 111.779 108.956 111.779 109.137C111.779 109.308 111.741 109.47 111.675 109.613C111.608 109.755 111.513 109.86 111.389 109.936C111.275 110.022 111.132 110.06 110.97 110.06C110.818 110.06 110.675 110.022 110.561 109.936C110.437 109.86 110.342 109.755 110.275 109.613ZM112.046 109.793C112.151 109.603 112.208 109.384 112.208 109.137C112.208 108.889 112.151 108.67 112.046 108.47C111.951 108.28 111.798 108.127 111.618 108.013C111.427 107.899 111.218 107.842 110.97 107.842C110.732 107.842 110.523 107.899 110.332 108.013C110.152 108.127 109.999 108.28 109.895 108.47C109.799 108.67 109.742 108.889 109.742 109.137C109.742 109.384 109.799 109.603 109.895 109.793C109.999 109.993 110.152 110.146 110.332 110.26C110.523 110.365 110.732 110.422 110.97 110.422C111.218 110.422 111.427 110.365 111.618 110.26C111.798 110.146 111.951 109.993 112.046 109.793Z" fill="#525F7A"/>
<path d="M112.547 110.402H112.956V108.603L114.194 110.402H114.575V107.87H114.165V109.66L112.928 107.87H112.547V110.402Z" fill="#525F7A"/>
<path d="M130.461 107.87V108.232H131.242V110.402H131.66V108.232H132.441V107.87H130.461Z" fill="#525F7A"/>
<path d="M133.169 107.87H132.75V109.317C132.75 109.679 132.836 109.955 132.998 110.145C133.169 110.326 133.416 110.421 133.74 110.421C134.073 110.421 134.321 110.326 134.492 110.145C134.664 109.955 134.749 109.679 134.749 109.317V107.87H134.33V109.336C134.33 109.574 134.283 109.755 134.188 109.879C134.092 109.993 133.95 110.05 133.74 110.05C133.55 110.05 133.397 109.993 133.302 109.879C133.216 109.755 133.169 109.574 133.169 109.336V107.87Z" fill="#525F7A"/>
<path d="M135.18 107.87V110.402H136.884V110.031H135.599V109.298H136.617V108.936H135.599V108.232H136.836V107.87H135.18Z" fill="#525F7A"/>
<path d="M152.578 107.87L153.302 110.402H153.797L154.301 108.536L154.815 110.402H155.31L156.034 107.87H155.605L155.063 109.869L154.511 107.87H154.12L153.559 109.869L153.016 107.86L152.578 107.87Z" fill="#525F7A"/>
<path d="M156.234 107.87V110.402H157.938V110.031H156.653V109.298H157.672V108.936H156.653V108.232H157.891V107.87H156.234Z" fill="#525F7A"/>
<path d="M159.067 110.041H158.677V108.232H159.067C159.343 108.232 159.553 108.308 159.695 108.47C159.848 108.632 159.924 108.86 159.924 109.136C159.924 109.412 159.848 109.631 159.695 109.793C159.553 109.955 159.343 110.041 159.067 110.041ZM158.258 107.87V110.402H159.067C159.324 110.402 159.553 110.345 159.743 110.241C159.943 110.136 160.086 109.984 160.19 109.793C160.295 109.603 160.352 109.384 160.352 109.136C160.352 108.879 160.295 108.66 160.19 108.47C160.086 108.279 159.943 108.137 159.743 108.022C159.553 107.918 159.324 107.87 159.067 107.87H158.258Z" fill="#525F7A"/>
<path d="M176.094 107.87V108.232H176.874V110.402H177.293V108.232H178.074V107.87H176.094Z" fill="#525F7A"/>
<path d="M178.398 107.86V110.402H178.817V109.298H179.998V110.402H180.417V107.86H179.998V108.927H178.817V107.86H178.398Z" fill="#525F7A"/>
<path d="M181.263 107.87H180.844V109.317C180.844 109.679 180.929 109.955 181.091 110.145C181.263 110.326 181.51 110.421 181.834 110.421C182.167 110.421 182.415 110.326 182.586 110.145C182.757 109.955 182.843 109.679 182.843 109.317V107.87H182.424V109.336C182.424 109.574 182.376 109.755 182.281 109.879C182.186 109.993 182.043 110.05 181.834 110.05C181.643 110.05 181.491 109.993 181.396 109.879C181.31 109.755 181.263 109.574 181.263 109.336V107.87Z" fill="#525F7A"/>
<path d="M199.086 107.87V110.402H199.505V109.327H200.495V108.974H199.505V108.232H200.704V107.87H199.086Z" fill="#525F7A"/>
<path d="M201.427 109.117V108.232H201.979C202.131 108.232 202.245 108.27 202.331 108.346C202.426 108.432 202.464 108.537 202.464 108.67C202.464 108.813 202.426 108.917 202.331 109.003C202.245 109.079 202.131 109.117 201.979 109.117H201.427ZM202.007 107.87H201.008V110.402H201.427V109.479H201.988L202.474 110.402H202.94L202.398 109.393C202.55 109.336 202.674 109.251 202.759 109.117C202.855 108.993 202.893 108.841 202.893 108.67C202.893 108.508 202.855 108.375 202.788 108.251C202.712 108.127 202.607 108.032 202.474 107.965C202.341 107.899 202.188 107.87 202.007 107.87Z" fill="#525F7A"/>
<path d="M203.258 107.87V110.402H203.677V107.87H203.258Z" fill="#525F7A"/>
<path d="M221.948 109.574L221.539 109.565C221.549 109.736 221.587 109.889 221.672 110.012C221.758 110.146 221.882 110.241 222.034 110.317C222.186 110.384 222.358 110.422 222.558 110.422C222.739 110.422 222.9 110.393 223.043 110.326C223.186 110.26 223.3 110.165 223.376 110.05C223.462 109.927 223.5 109.793 223.5 109.641C223.5 109.489 223.462 109.365 223.386 109.27C223.31 109.175 223.215 109.108 223.1 109.06C222.977 109.013 222.834 108.975 222.672 108.946C222.51 108.918 222.386 108.889 222.301 108.86C222.215 108.841 222.148 108.803 222.091 108.756C222.044 108.708 222.015 108.641 222.015 108.556C222.015 108.442 222.063 108.356 222.148 108.289C222.234 108.223 222.348 108.194 222.501 108.194C222.653 108.194 222.777 108.232 222.881 108.308C222.977 108.394 223.034 108.499 223.043 108.632H223.453C223.453 108.48 223.405 108.337 223.319 108.223C223.243 108.099 223.129 108.013 222.986 107.947C222.843 107.88 222.681 107.842 222.501 107.842C222.32 107.842 222.167 107.87 222.034 107.937C221.891 107.994 221.787 108.089 221.71 108.204C221.634 108.318 221.596 108.442 221.596 108.584C221.596 108.746 221.634 108.87 221.71 108.965C221.787 109.06 221.882 109.137 221.996 109.184C222.11 109.232 222.253 109.27 222.415 109.298C222.577 109.327 222.7 109.355 222.796 109.384C222.881 109.403 222.958 109.441 223.005 109.498C223.053 109.546 223.081 109.613 223.081 109.698C223.081 109.812 223.034 109.908 222.938 109.974C222.843 110.041 222.72 110.069 222.567 110.069C222.386 110.069 222.244 110.031 222.139 109.936C222.025 109.851 221.967 109.727 221.948 109.574Z" fill="#525F7A"/>
<path d="M224.39 109.422L224.79 108.318L225.199 109.422H224.39ZM223.609 110.402H224.038L224.276 109.774H225.313L225.551 110.402H225.999L225.056 107.87H224.561L223.609 110.402Z" fill="#525F7A"/>
<path d="M223.977 110.082V110.444H224.757V112.614H225.176V110.444H225.957V110.082H223.977Z" fill="#525F7A"/>
</g>
<path d="M101.502 77.9735L73.9141 70.2385V104.419H237.015V79.748L211.247 68.2155H185.174L156.98 86.2529L129.09 50.3076L101.502 77.9735Z" fill="url(#paint5_linear_29_8032)"/>
<path d="M237.015 79.7477L213.853 69.382C212.415 68.7381 209.967 68.2153 208.391 68.2153H188.03C186.454 68.2153 184.096 68.905 182.769 69.7544L159.386 84.7136C158.058 85.563 156.196 85.2416 155.229 83.9963L130.84 52.5638C129.874 51.3185 128.186 51.2136 127.073 52.3297L103.518 75.9509C102.406 77.067 100.27 77.6277 98.7519 77.2022L73.9141 70.2383" stroke="#3D87F4" stroke-width="0.629267" stroke-linecap="round" stroke-linejoin="round"/>
</g>
</g>
<defs>
<linearGradient id="paint0_linear_29_8032" x1="-3.14064" y1="-57.5569" x2="143.684" y2="239.075" gradientUnits="userSpaceOnUse">
<stop stop-color="#303745"/>
<stop offset="0.5" stop-color="#292F3B"/>
<stop offset="1" stop-color="#212630"/>
</linearGradient>
<linearGradient id="paint1_linear_29_8032" x1="78.515" y1="241.875" x2="-0.000447786" y2="-53.8925" gradientUnits="userSpaceOnUse">
<stop stop-color="#626262" stop-opacity="0"/>
<stop offset="0.39" stop-color="#666E83" stop-opacity="0.075"/>
<stop offset="0.78" stop-color="#6A7AA4" stop-opacity="0.15"/>
<stop offset="0.89" stop-color="#6A7AA3" stop-opacity="0.275"/>
<stop offset="1" stop-color="#6979A3" stop-opacity="0.4"/>
</linearGradient>
<linearGradient id="paint2_linear_29_8032" x1="-4.80677" y1="-29.5016" x2="142.016" y2="267.129" gradientUnits="userSpaceOnUse">
<stop stop-color="#303745"/>
<stop offset="0.5" stop-color="#292F3B"/>
<stop offset="1" stop-color="#212630"/>
</linearGradient>
<linearGradient id="paint3_linear_29_8032" x1="56.0107" y1="-65.2953" x2="195.775" y2="191.051" gradientUnits="userSpaceOnUse">
<stop stop-color="#303745"/>
<stop offset="0.5" stop-color="#292F3B"/>
<stop offset="1" stop-color="#212630"/>
</linearGradient>
<linearGradient id="paint4_linear_29_8032" x1="133.74" y1="193.469" x2="59" y2="-62.128" gradientUnits="userSpaceOnUse">
<stop stop-color="#626262" stop-opacity="0"/>
<stop offset="0.39" stop-color="#666E83" stop-opacity="0.075"/>
<stop offset="0.78" stop-color="#6A7AA4" stop-opacity="0.15"/>
<stop offset="0.89" stop-color="#6A7AA3" stop-opacity="0.275"/>
<stop offset="1" stop-color="#6979A3" stop-opacity="0.4"/>
</linearGradient>
<linearGradient id="paint5_linear_29_8032" x1="155.465" y1="50.3076" x2="154.555" y2="104.124" gradientUnits="userSpaceOnUse">
<stop stop-color="#3B85F4"/>
<stop offset="0.03" stop-color="#3C86F4" stop-opacity="0.964"/>
<stop offset="0.06" stop-color="#3D87F5" stop-opacity="0.928"/>
<stop offset="0.48" stop-color="#3D87F5" stop-opacity="0.464"/>
<stop offset="0.89" stop-color="#3D87F5" stop-opacity="0"/>
</linearGradient>
</defs>
</svg>
