<svg width="1440" height="462" viewBox="0 0 1440 462" fill="none" xmlns="http://www.w3.org/2000/svg">
<g clip-path="url(#clip0_3115_250867)">
<circle cx="-254.5" cy="646.601" r="974.5" fill="url(#paint0_linear_3115_250867)"/>
<circle cx="1277.5" cy="1060.6" r="974.5" fill="url(#paint1_linear_3115_250867)" fill-opacity="0.8"/>
<path d="M192.5 219.101L206.885 316.699L249.4 227.677L234.379 325.18L301.243 252.644L258.151 341.387L343.425 291.783L276.09 363.881L372.196 341.616L286.601 390.664L385 397.715L288.75 419.354L380.7 455.096L282.348 447.405L359.677 508.661L267.963 472.321L323.801 553.65L246.872 491.89L276.257 586.065L220.95 504.373L221.272 603.025L192.5 508.661L163.729 603.025L164.051 504.373L108.743 586.065L138.129 491.89L61.1997 553.65L117.038 472.321L25.3227 508.661L102.652 447.405L4.30008 455.096L96.2501 419.354L0 397.715L98.4003 390.664L12.8043 341.616L108.912 363.881L41.5756 291.783L126.85 341.387L83.757 252.644L150.622 325.18L135.601 227.677L178.115 316.699L192.5 219.101Z" fill="url(#paint2_linear_3115_250867)"/>
<path d="M1337.88 22.0967C1338.04 20.7692 1339.96 20.7692 1340.12 22.0967L1341.44 33.2336C1343.15 47.6144 1354.49 58.9525 1368.87 60.6588L1380 61.9802C1381.33 62.1379 1381.33 64.0643 1380 64.2219L1368.87 65.5434C1354.49 67.2497 1343.15 78.5878 1341.44 92.9684L1340.12 104.105C1339.96 105.433 1338.04 105.433 1337.88 104.105L1336.56 92.9684C1334.85 78.5878 1323.51 67.2497 1309.13 65.5434L1298 64.2219C1296.67 64.0643 1296.67 62.1379 1298 61.9802L1309.13 60.6588C1323.51 58.9525 1334.85 47.6144 1336.56 33.2336L1337.88 22.0967Z" fill="#E75571"/>
</g>
<defs>
<linearGradient id="paint0_linear_3115_250867" x1="-1558.75" y1="-2130.07" x2="-542.42" y2="781.948" gradientUnits="userSpaceOnUse">
<stop stop-color="#E75571"/>
<stop offset="1" stop-color="#E75571" stop-opacity="0"/>
</linearGradient>
<linearGradient id="paint1_linear_3115_250867" x1="-26.7549" y1="-1716.07" x2="989.58" y2="1195.95" gradientUnits="userSpaceOnUse">
<stop stop-color="#E75571"/>
<stop offset="1" stop-color="#E75571" stop-opacity="0"/>
</linearGradient>
<linearGradient id="paint2_linear_3115_250867" x1="-21" y1="610.601" x2="336.5" y2="115.101" gradientUnits="userSpaceOnUse">
<stop stop-color="#E75571"/>
<stop offset="1" stop-color="#E75571" stop-opacity="0"/>
</linearGradient>
<clipPath id="clip0_3115_250867">
<rect width="1440" height="856" fill="white" transform="translate(0 -108.899)"/>
</clipPath>
</defs>
</svg>
