<svg width="542" height="544" viewBox="0 0 542 544" fill="none" xmlns="http://www.w3.org/2000/svg">
<path d="M61.375 0L61.375 544M99.375 0L99.375 544M137.375 0L137.375 544M175.375 0L175.375 544M213.375 0L213.375 544M251.375 0L251.375 544M289.375 0L289.375 544M327.375 0L327.375 544M365.375 0L365.375 544M403.375 0L403.375 544M441.375 0L441.375 544M479.375 0L479.375 544M542 63.375L0 63.375M542 101.375L0 101.375M542 139.375L0 139.375M542 177.375L0 177.375M542 215.375L0 215.375M542 253.375L0 253.375M542 291.375L0 291.375M542 329.375L0 329.375M542 367.375L0 367.375M542 405.375L0 405.375M542 443.375L0 443.375M542 481.375L0 481.375" stroke="#20293B"/>
</svg>
