<svg width="651" height="150" viewBox="0 0 651 150" fill="none" xmlns="http://www.w3.org/2000/svg">
<path d="M643.787 38.4871C644.172 38.4871 644.508 38.5625 644.809 38.7133C645.102 38.8641 645.329 39.0736 645.496 39.3417C645.655 39.6098 645.739 39.9282 645.739 40.2885C645.739 40.6991 645.622 41.051 645.396 41.3527C645.169 41.6543 644.868 41.8554 644.491 41.956L645.806 44.3523H644.985L643.77 42.0984H642.27V44.3523H641.541V38.4871H643.787ZM642.27 41.4281H643.728C644.114 41.4281 644.415 41.3275 644.65 41.1181C644.876 40.917 644.994 40.6405 644.994 40.2885C644.994 39.9534 644.876 39.6769 644.65 39.4674C644.415 39.2663 644.114 39.1574 643.737 39.1574H642.27V41.4281Z" fill="white"/>
<circle cx="643.406" cy="41.4059" r="6.91161" stroke="white" stroke-width="1.01135"/>
<path fill-rule="evenodd" clip-rule="evenodd" d="M18.8364 27.1259L57.4498 50.3823L60.3575 45.5264L66.4404 45.6504L67.3655 0.262268L54.4978 0L53.8922 29.7128L59.5027 41.53L57.6024 42.8956L50.3542 31.045L25.3822 16.0246L18.8364 27.1259ZM16.9337 120.476L56.4627 98.8122L59.1701 103.783L65.253 103.907L64.3279 149.295L51.4602 149.032L52.0658 119.32L58.1532 107.741L56.3101 106.299L48.585 117.844L23.0218 131.835L16.9337 120.476ZM45.9932 69.2541L7.46737 45.8529L0.674377 56.8047L25.5721 71.9479L39.4332 72.8653L39.106 75.1824L26.0349 75.7L0 90.0319L6.20675 101.307L45.9765 79.4139L43.0424 74.084L45.9932 69.2541ZM147.979 48.7171L108.532 70.5291L111.283 75.4751L108.134 80.6811L146.979 104.176L153.64 93.1636L128.211 77.7828L115.171 76.7331L114.939 74.4046L128.826 74.0527L154.32 59.9366L147.979 48.7171ZM96.0018 99.6178L134.615 122.874L128.069 133.976L103.097 118.955L95.8492 107.105L93.9489 108.47L99.5595 120.287L98.9539 150L86.0861 149.738L87.0112 104.35L93.0942 104.474L96.0018 99.6178Z" fill="white"/>
<path d="M174.469 28.3712H191.113L216.134 89.9189L240.708 28.3712H257.017V106.562H244.618V49.036L221.16 106.562H210.325L186.868 49.036V106.562H174.469V28.3712ZM281.835 103.658C277.367 101.201 274.016 97.8498 271.559 93.3817C269.101 88.9136 267.984 83.7753 267.984 77.9668C267.984 72.27 269.101 67.2434 271.559 62.7754C274.016 58.3073 277.367 54.8445 281.835 52.3871C286.303 49.9296 291.33 48.7009 297.139 48.7009C302.835 48.7009 307.862 49.9296 312.33 52.3871C316.798 54.8445 320.149 58.3073 322.607 62.7754C325.064 67.2434 326.293 72.27 326.293 77.9668C326.293 83.7753 325.064 88.9136 322.607 93.3817C320.149 97.8498 316.798 101.201 312.33 103.658C307.862 106.116 302.835 107.233 297.139 107.233C291.33 107.233 286.303 106.116 281.835 103.658ZM309.314 91.7061C312.442 88.1317 314.006 83.5519 314.006 77.9668C314.006 72.3817 312.442 67.9136 309.314 64.3392C306.186 60.7647 302.165 58.9775 297.139 58.9775C292 58.9775 287.979 60.7647 284.963 64.3392C281.835 67.9136 280.383 72.3817 280.383 77.9668C280.383 83.5519 281.835 88.1317 284.963 91.7061C287.979 95.2806 292 96.9561 297.139 96.9561C302.165 96.9561 306.186 95.2806 309.314 91.7061ZM339.243 59.9828H329.302V49.3711H339.243V33.3977H351.419V49.3711H365.158V59.9828H351.419V89.8072C351.419 92.0413 351.866 93.7168 352.759 94.6104C353.653 95.504 355.105 95.9508 357.339 95.9508H366.498V106.562H354.881C349.408 106.562 345.387 105.334 342.929 102.765C340.472 100.307 339.243 96.3976 339.243 91.0359V59.9828ZM427.052 96.0625V106.562H420.685C416.887 106.562 414.207 105.781 412.643 104.217C410.967 102.653 410.185 100.419 410.185 97.4029C405.829 103.993 399.574 107.233 391.308 107.233C384.829 107.233 379.691 105.781 375.893 102.765C371.983 99.8604 370.084 95.7274 370.084 90.4774C370.084 84.6689 372.095 80.0891 376.34 76.9615C380.473 73.8338 386.504 72.1583 394.547 72.1583H408.957V68.6956C408.957 65.5679 407.84 62.9988 405.605 61.2115C403.371 59.4243 400.244 58.419 396.334 58.419C392.76 58.419 389.856 59.2009 387.621 60.7647C385.387 62.3285 384.047 64.3392 383.6 66.7966H371.76C372.318 61.0998 374.887 56.6317 379.356 53.5041C383.824 50.3764 389.632 48.7009 396.893 48.7009C404.488 48.7009 410.409 50.4881 414.653 54.0626C418.786 57.6371 420.909 62.7754 420.909 69.4775V92.0413C420.909 94.7221 422.137 96.0625 424.706 96.0625H427.052ZM408.957 81.0945H393.988C390.191 81.0945 387.398 81.8764 385.387 83.3285C383.377 84.7806 382.371 86.903 382.371 89.6955C382.371 92.153 383.265 94.1636 385.164 95.6157C387.063 97.1795 389.632 97.8498 392.983 97.8498C397.898 97.8498 401.808 96.5093 404.6 93.8285C407.393 91.1476 408.845 87.5732 408.957 83.1051V81.0945ZM489.139 49.3711V104.217C489.139 112.259 486.682 118.515 481.99 122.983C477.187 127.451 469.815 129.573 459.873 129.573C452.054 129.573 445.799 127.898 440.996 124.435C436.081 120.972 433.4 116.057 432.953 109.69H445.24C445.911 112.93 447.698 115.387 450.379 117.174C453.06 118.961 456.522 119.743 460.767 119.743C471.714 119.743 477.187 114.493 477.187 103.77V97.4029C472.943 103.658 466.799 106.786 458.533 106.786C453.283 106.786 448.592 105.669 444.57 103.323C440.437 100.977 437.198 97.6263 434.964 93.27C432.618 88.9136 431.501 83.7753 431.501 77.7434C431.501 72.0466 432.618 67.02 434.964 62.5519C437.31 58.1956 440.549 54.8445 444.682 52.3871C448.703 49.9296 453.395 48.7009 458.533 48.7009C462.778 48.7009 466.576 49.5945 469.703 51.2701C472.831 53.0573 475.288 55.403 477.299 58.3073L478.639 49.3711H489.139ZM472.607 91.4827C475.623 88.02 477.187 83.5519 477.187 77.9668C477.187 72.3817 475.623 67.8019 472.607 64.2275C469.48 60.653 465.458 58.8658 460.544 58.8658C455.517 58.8658 451.496 60.653 448.48 64.1158C445.352 67.6902 443.9 72.1583 443.9 77.7434C443.9 83.3285 445.352 87.9083 448.48 91.371C451.496 94.9455 455.517 96.621 460.544 96.621C465.458 96.621 469.48 94.9455 472.607 91.4827ZM512.21 28.5946C513.551 29.935 514.332 31.7222 514.332 33.7329C514.332 35.8552 513.551 37.6424 512.21 38.9828C510.758 40.3233 508.971 40.9935 506.96 40.9935C504.838 40.9935 503.051 40.3233 501.71 38.9828C500.258 37.6424 499.588 35.8552 499.588 33.7329C499.588 31.7222 500.258 29.935 501.71 28.5946C503.051 27.2541 504.838 26.4722 506.96 26.4722C508.971 26.4722 510.758 27.2541 512.21 28.5946ZM500.928 49.3711H512.992V106.562H500.928V49.3711ZM526.158 62.6637C528.504 58.1956 531.743 54.8445 535.988 52.3871C540.232 49.9296 545.036 48.7009 550.509 48.7009C555.982 48.7009 560.786 49.8179 565.03 52.052C569.275 54.286 572.514 57.5254 574.972 61.5466C577.429 65.6796 578.658 70.4828 578.77 75.9562C578.77 77.52 578.658 78.9721 578.435 80.536H535.318V81.2062C535.541 86.2328 537.105 90.1423 540.009 93.0466C542.802 95.9508 546.599 97.4029 551.291 97.4029C554.977 97.4029 558.105 96.621 560.674 94.8338C563.131 93.0466 564.807 90.5891 565.701 87.3498H577.764C576.647 93.1583 573.855 97.9615 569.275 101.648C564.695 105.445 558.998 107.233 552.185 107.233C546.153 107.233 541.014 106.116 536.546 103.658C532.078 101.201 528.727 97.8498 526.27 93.3817C523.812 89.0253 522.695 83.887 522.695 78.0785C522.695 72.27 523.812 67.1317 526.158 62.6637ZM566.482 71.7115C565.924 67.5785 564.248 64.3392 561.456 61.9934C558.663 59.6477 555.201 58.419 550.956 58.419C546.935 58.419 543.584 59.6477 540.679 62.1051C537.775 64.5626 536.211 67.6902 535.764 71.7115H566.482ZM597.802 87.6849C598.025 90.7008 599.366 93.1583 601.935 95.0572C604.504 96.9561 607.855 97.8498 611.988 97.8498C615.562 97.8498 618.578 97.1795 620.812 95.8391C623.046 94.4987 624.275 92.5998 624.275 90.254C624.275 88.3551 623.717 86.903 622.711 85.8976C621.594 85.004 620.254 84.3338 618.467 83.887C616.679 83.4402 613.998 82.9934 610.424 82.5466C605.397 81.9881 601.264 81.2062 598.025 80.2008C594.786 79.1955 592.217 77.6317 590.206 75.3977C588.195 73.1636 587.302 70.2594 587.302 66.4615C587.302 62.9988 588.195 59.8711 590.206 57.1903C592.217 54.5094 594.897 52.3871 598.36 50.8232C601.823 49.3711 605.733 48.5892 610.201 48.5892C617.35 48.5892 623.27 50.2647 627.738 53.3924C632.206 56.6317 634.663 61.0998 635.11 66.9083H623.381C623.046 64.3392 621.706 62.2168 619.472 60.5413C617.126 58.8658 614.222 57.9722 610.759 57.9722C607.185 57.9722 604.392 58.6424 602.27 59.9828C600.036 61.3232 599.03 63.2222 599.03 65.4562C599.03 67.2434 599.477 68.4721 600.594 69.3658C601.711 70.2594 603.052 70.8179 604.727 71.153C606.291 71.4881 608.972 71.8232 612.658 72.27C617.573 72.8285 621.706 73.6104 625.057 74.7275C628.408 75.8445 631.089 77.52 633.099 79.8657C635.11 82.2115 636.115 85.3391 636.115 89.3604C636.115 92.9349 634.998 96.1742 632.988 98.8551C630.865 101.536 627.961 103.658 624.387 105.11C620.701 106.562 616.568 107.233 612.1 107.233C604.392 107.233 598.137 105.557 593.445 102.094C588.754 98.6317 586.296 93.8285 586.185 87.6849H597.802Z" fill="white"/>
<path d="M175.248 117.014H176.768V121.926H182.784V117.014H184.304V128.438H182.784V123.206H176.768V128.438H175.248V117.014ZM190.155 117.014H198.043V118.294H191.675V121.926H197.611V123.206H191.675V127.158H198.091V128.438H190.155V117.014ZM205.264 123.718H209.136L207.232 118.39H207.2L205.264 123.718ZM206.4 117.014H208.08L212.544 128.438H210.864L209.616 124.998H204.784L203.504 128.438H201.952L206.4 117.014ZM217.031 117.014H218.551V127.158H224.599V128.438H217.031V117.014ZM230.405 118.294H226.597V117.014H235.733V118.294H231.925V128.438H230.405V118.294ZM240.361 117.014H241.881V121.926H247.897V117.014H249.417V128.438H247.897V123.206H241.881V128.438H240.361V117.014ZM271.112 120.454C270.942 119.643 270.563 119.035 269.976 118.63C269.4 118.224 268.712 118.022 267.912 118.022C267.23 118.022 266.643 118.15 266.152 118.406C265.672 118.662 265.272 119.008 264.952 119.446C264.643 119.872 264.414 120.363 264.264 120.918C264.115 121.472 264.04 122.048 264.04 122.646C264.04 123.296 264.115 123.915 264.264 124.502C264.414 125.078 264.643 125.584 264.952 126.022C265.272 126.448 265.678 126.79 266.168 127.046C266.659 127.302 267.246 127.43 267.928 127.43C268.43 127.43 268.872 127.35 269.256 127.19C269.651 127.019 269.987 126.79 270.264 126.502C270.552 126.203 270.776 125.851 270.936 125.446C271.096 125.04 271.192 124.603 271.224 124.134H272.744C272.595 125.574 272.099 126.694 271.256 127.494C270.414 128.294 269.262 128.694 267.8 128.694C266.915 128.694 266.142 128.544 265.48 128.246C264.819 127.936 264.27 127.515 263.832 126.982C263.395 126.448 263.064 125.819 262.84 125.094C262.627 124.368 262.52 123.59 262.52 122.758C262.52 121.926 262.638 121.147 262.872 120.422C263.107 119.686 263.448 119.046 263.896 118.502C264.355 117.958 264.92 117.531 265.592 117.222C266.275 116.902 267.054 116.742 267.928 116.742C268.526 116.742 269.091 116.822 269.624 116.982C270.158 117.142 270.632 117.376 271.048 117.686C271.464 117.995 271.811 118.384 272.088 118.854C272.366 119.312 272.547 119.846 272.632 120.454H271.112ZM279.955 123.718H283.827L281.923 118.39H281.891L279.955 123.718ZM281.091 117.014H282.771L287.235 128.438H285.555L284.307 124.998H279.475L278.195 128.438H276.643L281.091 117.014ZM291.722 117.014H297.098C298.186 117.014 299.034 117.28 299.642 117.814C300.261 118.347 300.57 119.078 300.57 120.006C300.57 120.699 300.41 121.307 300.09 121.83C299.781 122.352 299.28 122.71 298.586 122.902V122.934C298.917 122.998 299.184 123.104 299.386 123.254C299.6 123.403 299.765 123.584 299.882 123.798C300.01 124 300.101 124.23 300.154 124.486C300.218 124.742 300.266 125.008 300.298 125.286C300.32 125.563 300.336 125.846 300.346 126.134C300.357 126.422 300.384 126.704 300.426 126.982C300.469 127.259 300.528 127.526 300.602 127.782C300.688 128.027 300.81 128.246 300.97 128.438H299.274C299.168 128.32 299.093 128.16 299.05 127.958C299.018 127.755 298.997 127.531 298.986 127.286C298.976 127.03 298.965 126.758 298.954 126.47C298.944 126.182 298.912 125.899 298.858 125.622C298.816 125.344 298.762 125.083 298.698 124.838C298.634 124.582 298.533 124.363 298.394 124.182C298.256 123.99 298.074 123.84 297.85 123.734C297.626 123.616 297.328 123.558 296.954 123.558H293.242V128.438H291.722V117.014ZM296.41 122.278C296.762 122.278 297.098 122.251 297.418 122.198C297.738 122.144 298.016 122.043 298.25 121.894C298.496 121.734 298.688 121.526 298.826 121.27C298.976 121.003 299.05 120.662 299.05 120.246C299.05 119.67 298.89 119.2 298.57 118.838C298.25 118.475 297.733 118.294 297.018 118.294H293.242V122.278H296.41ZM306.036 117.014H313.924V118.294H307.556V121.926H313.492V123.206H307.556V127.158H313.972V128.438H306.036V117.014Z" fill="#FFC700"/>
<path d="M139.044 29.1548L99.0092 51.1479L96.2607 46.1139L90.0965 45.9945L90.9877 -9.9644e-05L104.027 0.252565L103.444 30.3624L97.2871 42.1019L99.1562 43.5611L106.973 31.8539L132.863 17.6507L139.044 29.1548Z" fill="#FFC700"/>
</svg>
