<svg width="2045" height="2045" viewBox="0 0 2045 2045" fill="none" xmlns="http://www.w3.org/2000/svg">
<circle cx="1022.81" cy="1043.85" r="553.492" stroke="#FECF42" stroke-width="3.71264"/>
<circle cx="1022.81" cy="1022.19" r="788.007" stroke="#FECF42" stroke-opacity="0.5" stroke-width="4.95018"/>
<circle cx="1022.5" cy="1022.5" r="1020.16" stroke="#FECF42" stroke-opacity="0.5" stroke-width="3.32281"/>
<rect x="776.215" y="723.592" width="547.036" height="537.245" rx="97.9036" fill="#F2C94C"/>
<path fill-rule="evenodd" clip-rule="evenodd" d="M1004.87 936.178L916.978 883.241L931.878 857.971L988.721 892.162L1005.22 919.137L1009.55 916.028L996.774 889.129L998.152 821.495L1027.44 822.092L1025.34 925.407L1011.49 925.125L1004.87 936.178ZM1002.63 1046.42L912.648 1095.73L926.506 1121.59L984.694 1089.74L1002.28 1063.46L1006.47 1066.74L992.617 1093.1L991.239 1160.73L1020.53 1161.33L1022.63 1058.01L1008.79 1057.73L1002.63 1046.42ZM891.093 925.868L978.788 979.135L972.071 990.129L978.75 1002.26L888.224 1052.1L874.096 1026.43L933.358 993.807L963.111 992.629L963.856 987.355L932.304 985.267L875.631 950.797L891.093 925.868ZM1121.14 982.037L1210.94 932.387L1225.37 957.926L1167.34 990.057L1135.73 990.859L1136.26 996.159L1165.94 998.548L1223.82 1033.56L1208.66 1058.63L1120.24 1005.15L1127.41 993.295L1121.14 982.037ZM1184.85 888.701L1094.87 938.013L1088.71 926.699L1074.86 926.417L1076.97 823.102L1106.26 823.699L1104.88 891.333L1091.02 917.69L1095.22 920.972L1112.8 894.691L1170.99 862.846L1184.85 888.701ZM1092.62 1048.25L1180.52 1101.19L1165.62 1126.46L1108.77 1092.27L1092.27 1065.29L1087.95 1068.4L1100.72 1095.3L1099.34 1162.93L1070.05 1162.34L1072.16 1059.02L1086 1059.3L1092.62 1048.25Z" fill="#00334F"/>
</svg>
