<svg width="447" height="439" viewBox="0 0 447 439" fill="none" xmlns="http://www.w3.org/2000/svg">
<rect width="447" height="439" rx="80" fill="#F2C94C"/>
<path fill-rule="evenodd" clip-rule="evenodd" d="M186.843 173.711L115.022 130.454L127.197 109.806L173.645 137.744L187.126 159.786L190.661 157.246L180.225 135.266L181.352 80L205.286 80.4878L203.565 164.91L192.251 164.679L186.843 173.711ZM185.007 263.791L111.483 304.085L122.807 325.213L170.355 299.19L184.723 277.716L188.151 280.398L176.829 301.934L175.702 357.2L199.636 357.688L201.357 273.266L190.043 273.036L185.007 263.791ZM93.8709 165.286L165.529 208.812L160.04 217.796L165.498 227.71L91.5261 268.43L79.9816 247.459L128.406 220.802L152.719 219.839L153.327 215.529L127.546 213.823L81.2359 185.657L93.8709 165.286ZM281.852 211.184L355.224 170.614L367.019 191.482L319.6 217.738L293.77 218.393L294.203 222.724L318.456 224.676L365.754 253.284L353.364 273.768L281.113 230.067L286.97 220.384L281.852 211.184ZM333.908 134.916L260.384 175.211L255.348 165.966L244.034 165.735L245.755 81.3132L269.689 81.8011L268.562 137.067L257.24 158.603L260.668 161.285L275.036 139.811L322.584 113.789L333.908 134.916ZM258.545 265.289L330.366 308.546L318.191 329.194L271.743 301.256L258.261 279.214L254.727 281.754L265.162 303.734L264.036 359L240.102 358.512L241.823 274.09L253.137 274.321L258.545 265.289Z" fill="#00334F"/>
</svg>
